<?xml version="1.0" encoding="iso-8859-1"?>
<!-- Generator: Adobe Illustrator 19.0.0, SVG Export Plug-In . SVG Version: 6.00 Build 0)  -->
<svg xmlns="http://www.w3.org/2000/svg" xmlns:xlink="http://www.w3.org/1999/xlink" version="1.1" id="Layer_1" x="0px" y="0px" viewBox="0 0 512 512" style="enable-background:new 0 0 512 512;" xml:space="preserve">
<g>
	<g>
		<g>
			<path d="M422.643,94.025c-41.988-41.988-97.031-66.17-155.974-68.78V10.667C266.668,4.776,261.893,0,256.001,0     c-5.889,0-10.667,4.776-10.667,10.667v14.578c-58.943,2.608-113.986,26.791-155.973,68.78     c-44.511,44.511-69.025,103.692-69.025,166.639c0,26.559,21.608,48.167,48.167,48.167c15.136,0,28.662-7.017,37.5-17.97     c8.836,10.953,22.364,17.97,37.5,17.97c15.135,0,28.662-7.017,37.498-17.97c8.838,10.953,22.364,17.97,37.5,17.97     c9.932,0,19.157-3.036,26.833-8.206v168.706c0,11.763-9.57,21.335-21.33,21.335c-11.763,0-21.335-9.572-21.335-21.335     c0-5.891-4.776-10.667-10.667-10.667c-5.889,0-10.667,4.777-10.667,10.667c0,23.529,19.14,42.669,42.669,42.669     c23.527,0,42.665-19.14,42.665-42.669V300.624c7.675,5.172,16.903,8.206,26.833,8.206c15.137,0,28.664-7.017,37.5-17.97     c8.836,10.953,22.364,17.97,37.498,17.97c15.136,0,28.664-7.017,37.502-17.97c8.836,10.953,22.364,17.97,37.498,17.97     c26.56,0,48.167-21.608,48.167-48.167C491.668,197.716,467.154,138.535,422.643,94.025z M182.408,159.834     c-10.255,51.911-11.996,98.496-12.068,100.454c-0.002,0.065,0.004,0.129,0.004,0.194c-0.002,0.063-0.011,0.121-0.011,0.183     c0,14.793-12.036,26.831-26.832,26.831c-14.69,0-26.655-11.87-26.824-26.52c0.457-5.486,5.663-61.239,31.777-115.24     c2.564-5.303,0.343-11.682-4.96-14.246c-5.305-2.562-11.682-0.346-14.246,4.958c-29.129,60.239-33.707,120.91-33.886,123.463     c-0.009,0.121-0.004,0.238-0.009,0.358c-0.004,0.131-0.019,0.26-0.019,0.394c0,14.794-12.038,26.833-26.833,26.833     c-14.797,0-26.833-12.038-26.833-26.833c0-107.784,79.978-197.223,183.701-212.131     C206.803,72.001,192.403,109.232,182.408,159.834z M245.335,260.664c-0.001,14.794-12.037,26.833-26.834,26.833     c-14.751,0-26.758-11.968-26.828-26.701c1.644-45.307,14.517-159.039,53.662-202.933V260.664z M368.5,287.497     c-14.794,0-26.83-12.038-26.83-26.833c0-5.892-4.776-10.667-10.667-10.667c-5.889,0-10.667,4.776-10.667,10.667     c0,14.794-12.036,26.833-26.833,26.833c-14.794,0-26.833-12.038-26.833-26.833V57.956c20.251,22.806,36.26,67.125,45.938,128.231     c0.831,5.253,5.367,8.999,10.521,8.999c0.556,0,1.117-0.042,1.683-0.131c5.817-0.923,9.788-6.385,8.868-12.204     c-7.94-50.141-19.662-88.995-35.014-116.296c31.033,20.828,55.651,53.866,73.478,98.762     c18.676,47.036,22.782,90.878,23.184,95.671C395.154,275.632,383.189,287.497,368.5,287.497z M443.5,287.497     c-14.794,0-26.83-12.038-26.83-26.833c0-0.123-0.015-0.242-0.019-0.363c-0.004-0.129,0.002-0.258-0.006-0.389     c-0.142-1.989-3.681-49.336-24.462-101.934c-12.318-31.181-28.177-57.704-47.137-78.829     c-7.615-8.486-15.736-16.095-24.327-22.821c86.649,27.506,149.613,108.7,149.613,204.336     C470.333,275.459,458.297,287.497,443.5,287.497z"/>
			<path d="M160.694,103.556c-4.944-3.207-11.548-1.796-14.753,3.148l-0.437,0.677c-3.194,4.951-1.769,11.553,3.181,14.747     c1.79,1.152,3.792,1.705,5.773,1.705c3.502,0,6.934-1.723,8.973-4.886l0.411-0.636     C167.046,113.367,165.637,106.763,160.694,103.556z"/>
			<path d="M337.925,214.284c-0.579-5.863-5.808-10.151-11.665-9.565c-5.863,0.579-10.145,5.802-9.565,11.666l0.067,0.617     c0.555,5.496,5.19,9.596,10.601,9.596c0.358,0,0.721-0.019,1.086-0.057c5.861-0.592,10.132-5.823,9.54-11.686L337.925,214.284z"/>
		</g>
	</g>
</g>
<g>
</g>
<g>
</g>
<g>
</g>
<g>
</g>
<g>
</g>
<g>
</g>
<g>
</g>
<g>
</g>
<g>
</g>
<g>
</g>
<g>
</g>
<g>
</g>
<g>
</g>
<g>
</g>
<g>
</g>
</svg>
