<?xml version="1.0" encoding="iso-8859-1"?>
<!-- Generator: Adobe Illustrator 19.0.0, SVG Export Plug-In . SVG Version: 6.00 Build 0)  -->
<svg xmlns="http://www.w3.org/2000/svg" xmlns:xlink="http://www.w3.org/1999/xlink" version="1.1" id="Layer_1" x="0px" y="0px" viewBox="0 0 512 512" style="enable-background:new 0 0 512 512;" xml:space="preserve">
<g>
	<g>
		<g>
			<path d="M491.046,168.159c-12.93-12.929-30.777-20.959-50.415-20.959h-66.869c18.517-8.924,31.43-19.953,39.7-31.701     c18.117-25.739,14.846-54.766-0.47-74.87c-15.248-20.012-42.45-31.093-72.303-21.089c-29.115,9.754-60.807,40.313-84.69,104.186     c-23.885-63.863-55.569-94.433-84.684-104.186c-29.855-10.004-57.056,1.076-72.303,21.089     c-15.317,20.103-18.588,49.132-0.471,74.87c8.27,11.748,21.181,22.778,39.7,31.701H71.37c-19.635,0-37.483,8.03-50.413,20.959     C8.026,181.088,0,198.936,0,218.572V424.83c0,19.635,8.026,37.484,20.957,50.413c12.93,12.935,30.778,20.96,50.413,20.96h126.295     h116.668h126.295c19.638,0,37.485-8.025,50.415-20.96C503.973,462.314,512,444.465,512,424.83V218.572     C512,198.936,503.973,181.088,491.046,168.159z M347.439,39.704c20.219-6.777,38.493,0.529,48.632,13.841     c10.072,13.217,12.11,32.462-0.026,49.706c-9.467,13.446-27.052,25.755-55.271,33.902c8.615-14.327,6.406-30.035-2.051-41.133     c-8.458-11.104-23.181-17.509-39.503-13.13C314.895,58.285,331.723,44.97,347.439,39.704z M115.954,103.25     c-12.134-17.244-10.097-36.489-0.028-49.706c10.142-13.311,28.416-20.617,48.636-13.84c15.714,5.264,32.544,18.58,48.219,43.186     c-16.321-4.381-31.046,2.026-39.507,13.129c-8.454,11.099-10.666,26.805-2.048,41.133     C143.005,129.005,125.421,116.696,115.954,103.25z M186.997,432.2H118.34c-5.892,0-10.667,4.774-10.667,10.669     c0,5.889,4.774,10.663,10.667,10.663h68.657v21.332H71.37c-13.748,0-26.259-5.629-35.33-14.704     c-9.073-9.072-14.707-21.581-14.707-35.331V218.572c0-13.75,5.634-26.258,14.707-35.33c9.071-9.072,21.582-14.709,35.33-14.709     h115.628V432.2z M190.332,127.495c-4.572-6.493-3.862-13.673-0.139-18.559c3.792-4.979,10.699-7.687,18.399-5.108     c10.714,3.588,22.735,16.036,32.589,42.881C212.267,144.687,196.8,136.684,190.332,127.495z M303.666,200.533v274.332h-95.334     v-31.996V168.532h47.667h47.667V200.533z M321.667,127.494c-6.466,9.189-21.933,17.193-50.848,19.215     c9.854-26.845,21.872-39.293,32.587-42.881c7.702-2.579,14.61,0.129,18.4,5.107C325.531,113.823,326.24,121.001,321.667,127.494z      M490.666,424.831c0,13.749-5.634,26.259-14.705,35.331c-9.073,9.075-21.582,14.704-35.332,14.704H325.001V211.202h68.657     c5.892,0,10.667-4.778,10.667-10.669c0-5.89-4.774-10.668-10.667-10.668h-68.657v-21.333h115.628     c13.75,0,26.259,5.637,35.332,14.709c9.071,9.072,14.705,21.58,14.705,35.33V424.831z"/>
			<path d="M424.557,189.87h-0.254c-5.892,0-10.666,4.779-10.666,10.669c-0.001,5.889,4.773,10.668,10.666,10.668h0.254     c5.892,0,10.669-4.779,10.669-10.668C435.226,194.648,430.449,189.87,424.557,189.87z"/>
			<path d="M87.442,453.528h0.254c5.892,0,10.669-4.773,10.669-10.663c0-5.893-4.778-10.668-10.669-10.668h-0.254     c-5.892,0-10.669,4.774-10.669,10.668C76.773,448.755,81.55,453.528,87.442,453.528z"/>
		</g>
	</g>
</g>
<g>
</g>
<g>
</g>
<g>
</g>
<g>
</g>
<g>
</g>
<g>
</g>
<g>
</g>
<g>
</g>
<g>
</g>
<g>
</g>
<g>
</g>
<g>
</g>
<g>
</g>
<g>
</g>
<g>
</g>
</svg>
