<?xml version="1.0" encoding="iso-8859-1"?>
<!-- Generator: Adobe Illustrator 19.0.0, SVG Export Plug-In . SVG Version: 6.00 Build 0)  -->
<svg xmlns="http://www.w3.org/2000/svg" xmlns:xlink="http://www.w3.org/1999/xlink" version="1.1" id="Layer_1" x="0px" y="0px" viewBox="0 0 511.999 511.999" style="enable-background:new 0 0 511.999 511.999;" xml:space="preserve">
<g>
	<g>
		<g>
			<path d="M490.671,229.627c0-28.929-21.407-52.947-49.214-57.056c7.363-9.882,11.344-21.818,11.344-34.366     c0-15.408-5.999-29.891-16.894-40.786s-25.378-16.893-40.786-16.893c-12.549,0-24.484,3.98-34.368,11.344     c-4.108-27.804-28.123-49.214-57.052-49.214c-28.929,0-52.947,21.411-57.054,49.215c-9.882-7.363-21.818-11.347-34.368-11.347     c-15.406,0-29.891,5.999-40.788,16.894c-10.894,10.894-16.894,25.378-16.894,40.786c0,15.406,5.999,29.891,16.896,40.786     c0.421,0.421,0.856,0.819,1.287,1.224c-6.17,16.308-9.207,33.462-9.024,50.751c-0.002,0.021-0.004,0.039-0.004,0.061     c-0.409,35.524-5.186,74.147-57.508,121.241l-67.321,60.587c-10.932,9.839-17.175,23.623-17.575,38.817     c-0.426,16.079,5.833,31.801,17.169,43.139c10.975,10.973,26.063,17.189,41.605,17.189c0.512,0,1.025-0.009,1.537-0.021     c15.194-0.402,28.979-6.643,38.816-17.576l60.59-67.321c46.9-52.107,85.404-57.056,120.813-57.502     c0.65,0.009,1.298,0.022,1.947,0.022c16.795,0,33.449-3.047,49.299-9.044c0.402,0.427,0.796,0.859,1.213,1.277     c10.897,10.894,25.38,16.893,40.786,16.893c15.408,0,29.891-5.999,40.788-16.896c20.456-20.462,22.294-52.589,5.533-75.154     C469.255,282.577,490.671,258.559,490.671,229.627z M369.419,112.502c6.866-6.865,15.994-10.646,25.703-10.646     c9.711,0,18.839,3.781,25.703,10.646c6.866,6.864,10.646,15.993,10.646,25.703c0,9.71-3.781,18.837-10.646,25.703     c-6.864,6.866-15.991,10.646-25.703,10.646c-9.71,0-18.837-3.781-25.703-10.646s-10.646-15.993-10.646-25.703     S362.554,119.366,369.419,112.502z M303.702,63.986c20.043,0,36.349,16.306,36.349,36.349c0,20.041-16.306,36.347-36.349,36.347     s-36.349-16.306-36.349-36.347C267.353,80.292,283.659,63.986,303.702,63.986z M186.575,112.502     c6.866-6.866,15.996-10.646,25.705-10.646s18.837,3.781,25.703,10.646c6.866,6.865,10.646,15.993,10.646,25.703     c0,9.71-3.781,18.837-10.648,25.703c-6.864,6.866-15.991,10.646-25.701,10.646c-7.365,0-14.396-2.181-20.358-6.228     c-0.054-0.039-0.109-0.077-0.162-0.114c-1.838-1.263-3.575-2.695-5.184-4.303c-6.866-6.866-10.646-15.993-10.646-25.703     S179.71,119.366,186.575,112.502z M165.21,412.812l-60.59,67.321c-5.885,6.541-14.24,10.278-23.524,10.521     c-10.241,0.288-20.281-3.711-27.496-10.927s-11.198-17.237-10.93-27.494c0.245-9.286,3.982-17.641,10.521-23.526l67.321-60.587     c31.871-28.685,48.03-55.198,56.219-79.603c5.189,11.198,11.852,21.672,19.874,31.191l-23.088,23.088     c-4.164,4.166-4.164,10.919,0,15.083c2.083,2.083,4.812,3.125,7.542,3.125c2.729,0,5.457-1.042,7.54-3.125l22.943-22.943     c10.066,8.821,21.251,16.089,33.268,21.656C220.408,364.784,193.894,380.945,165.21,412.812z M341.425,342.06     c-42.167,14.074-89.793,3.258-121.605-28.554c-31.805-31.803-42.623-79.416-28.564-121.574     c6.613,2.585,13.712,3.951,21.024,3.951c15.408,0,29.891-6.001,40.783-16.894c8.88-8.882,14.509-20.15,16.286-32.356     c9.603,7.145,21.492,11.378,34.353,11.378c12.861,0,24.75-4.233,34.351-11.375c1.779,12.206,7.403,23.472,16.284,32.354     c8.88,8.88,20.147,14.505,32.352,16.281c-7.142,9.605-11.378,21.492-11.378,34.356c0,12.861,4.235,24.748,11.378,34.351     c-12.206,1.777-23.472,7.403-32.352,16.285C337.661,296.94,333.366,321.372,341.425,342.06z M420.825,346.752     c-6.864,6.866-15.991,10.646-25.703,10.646c-9.71,0-18.837-3.781-25.701-10.646c-14.173-14.175-14.173-37.234-0.002-51.407     c6.866-6.866,15.995-10.648,25.703-10.648c9.708,0,18.837,3.783,25.703,10.65C434.996,309.518,434.996,332.577,420.825,346.752z      M432.99,265.974c-20.043,0-36.349-16.306-36.349-36.347c0-20.045,16.306-36.353,36.349-36.353     c20.045,0,36.351,16.308,36.351,36.353C469.341,249.668,453.035,265.974,432.99,265.974z"/>
			<path d="M272.74,27.648c9.845-4.194,20.262-6.318,30.96-6.318c21.103,0,40.944,8.217,55.867,23.138     c2.083,2.083,4.812,3.125,7.54,3.125c2.73,0,5.459-1.042,7.542-3.125c4.164-4.166,4.164-10.919-0.002-15.084     C355.696,10.436,330.5,0,303.7,0c-13.585,0-26.813,2.699-39.315,8.022c-5.42,2.306-7.942,8.572-5.637,13.989     C261.056,27.432,267.32,29.956,272.74,27.648z"/>
			<path d="M240.29,47.593c2.714,0,5.429-1.029,7.509-3.091l0.631-0.621c4.229-4.102,4.331-10.853,0.231-15.082     c-4.102-4.229-10.855-4.333-15.082-0.231c-0.271,0.26-0.533,0.523-0.798,0.783c-4.183,4.148-4.214,10.901-0.067,15.084     C234.802,46.539,237.545,47.593,240.29,47.593z"/>
			<path d="M151.898,364.416l-0.181,0.179c-4.189,4.141-4.227,10.892-0.087,15.083c2.087,2.111,4.837,3.166,7.586,3.166     c2.708,0,5.418-1.025,7.497-3.079l0.181-0.179c4.189-4.141,4.227-10.892,0.087-15.084     C162.839,360.314,156.086,360.279,151.898,364.416z"/>
		</g>
	</g>
</g>
<g>
</g>
<g>
</g>
<g>
</g>
<g>
</g>
<g>
</g>
<g>
</g>
<g>
</g>
<g>
</g>
<g>
</g>
<g>
</g>
<g>
</g>
<g>
</g>
<g>
</g>
<g>
</g>
<g>
</g>
</svg>
