<?xml version="1.0" encoding="iso-8859-1"?>
<!-- Generator: Adobe Illustrator 19.0.0, SVG Export Plug-In . SVG Version: 6.00 Build 0)  -->
<svg xmlns="http://www.w3.org/2000/svg" xmlns:xlink="http://www.w3.org/1999/xlink" version="1.1" id="Layer_1" x="0px" y="0px" viewBox="0 0 512 512" style="enable-background:new 0 0 512 512;" xml:space="preserve">
<g>
	<g>
		<g>
			<path d="M511.981,391.052c-0.007-0.175-0.013-0.348-0.029-0.521c-0.017-0.173-0.044-0.346-0.068-0.518     c-0.025-0.171-0.048-0.341-0.081-0.512c-0.033-0.175-0.079-0.35-0.123-0.525c-0.042-0.164-0.08-0.331-0.129-0.496     c-0.054-0.175-0.118-0.348-0.181-0.523c-0.059-0.162-0.112-0.325-0.179-0.485c-0.07-0.171-0.153-0.335-0.233-0.505     c-0.061-0.125-0.109-0.254-0.176-0.379l-20.025-38.173c-0.021-0.039-0.046-0.075-0.067-0.112     c-0.021-0.042-0.037-0.083-0.061-0.123c-0.067-0.121-0.146-0.229-0.217-0.346c-0.096-0.158-0.19-0.319-0.292-0.468     c-0.099-0.146-0.205-0.282-0.309-0.421c-0.111-0.146-0.219-0.293-0.337-0.433c-0.11-0.133-0.228-0.256-0.344-0.383     c-0.123-0.131-0.244-0.265-0.371-0.389c-0.125-0.121-0.254-0.234-0.384-0.348c-0.13-0.116-0.259-0.234-0.395-0.341     c-0.138-0.109-0.279-0.21-0.421-0.31c-0.138-0.1-0.274-0.202-0.417-0.293c-0.146-0.096-0.298-0.183-0.448-0.271     c-0.146-0.085-0.289-0.171-0.439-0.25c-0.153-0.079-0.31-0.15-0.467-0.223c-0.155-0.07-0.308-0.144-0.465-0.208     c-0.157-0.063-0.316-0.116-0.475-0.173c-0.163-0.057-0.326-0.116-0.493-0.164c-0.158-0.048-0.319-0.085-0.479-0.125     c-0.172-0.044-0.342-0.087-0.516-0.121c-0.16-0.031-0.321-0.054-0.481-0.077c-0.177-0.027-0.354-0.054-0.533-0.073     c-0.161-0.015-0.323-0.021-0.485-0.029c-0.181-0.011-0.361-0.021-0.542-0.021c-0.164,0-0.328,0.009-0.491,0.017     c-0.18,0.009-0.362,0.015-0.542,0.031c-0.165,0.017-0.333,0.044-0.497,0.067c-0.178,0.025-0.356,0.05-0.533,0.083     c-0.169,0.033-0.337,0.079-0.507,0.121c-0.171,0.042-0.342,0.083-0.512,0.133c-0.173,0.052-0.341,0.116-0.512,0.177     c-0.164,0.059-0.332,0.116-0.494,0.183c-0.171,0.07-0.337,0.155-0.506,0.234c-0.122,0.059-0.246,0.107-0.368,0.171     c-0.039,0.021-0.075,0.046-0.114,0.067c-0.039,0.021-0.081,0.037-0.121,0.061c-14.469,8.059-29.202,15.439-44.174,22.146     l-54.821-167.02c22.347,6.457,33.026,32.419,33.539,33.703c1.746,4.429,6.217,7.161,10.956,6.709l32.672-3.174     c2.816-0.273,5.407-1.654,7.206-3.838c1.799-2.186,2.654-4.995,2.381-7.811L446.15,42.147c-0.57-5.865-5.785-10.163-11.649-9.586     C379.597,37.89,333.28,56.067,296.837,86.582c-30.236,25.318-45.853,52.981-52.473,67.22c-0.741,1.596-1.32,2.971-1.792,4.165     c-0.275,0.229-0.538,0.468-0.787,0.723c-0.734,0.061-1.521,0.127-2.407,0.214L84.6,173.929c-4.894,0.475-8.827,4.234-9.528,9.098     c-4.782,33.233-43.384,58.765-43.759,59.008c-2.643,1.712-4.394,4.507-4.783,7.629c-0.389,3.126,0.62,6.263,2.76,8.571     c20.172,21.779,41.117,24.172,55.132,22.339c2.733-0.358,5.305-0.883,7.685-1.51l-9.931,122.859     c-18.048-3.99-35.965-8.877-53.72-14.68c-0.123-0.042-0.245-0.067-0.369-0.102c-0.187-0.052-0.372-0.109-0.558-0.151     c-0.161-0.035-0.323-0.065-0.485-0.094c-0.19-0.033-0.38-0.07-0.57-0.094c-0.161-0.021-0.323-0.031-0.484-0.046     c-0.19-0.015-0.378-0.031-0.566-0.035c-0.162-0.004-0.323,0-0.485,0.004c-0.186,0.004-0.371,0.006-0.556,0.019     c-0.163,0.013-0.324,0.033-0.486,0.052c-0.179,0.021-0.361,0.042-0.538,0.073c-0.162,0.027-0.323,0.065-0.483,0.098     c-0.174,0.039-0.348,0.075-0.52,0.123c-0.159,0.044-0.316,0.096-0.474,0.146c-0.166,0.054-0.335,0.107-0.5,0.169     c-0.156,0.059-0.306,0.127-0.458,0.192c-0.161,0.069-0.324,0.138-0.482,0.217c-0.148,0.073-0.291,0.155-0.437,0.234     c-0.154,0.085-0.307,0.169-0.457,0.26c-0.142,0.087-0.279,0.181-0.417,0.277c-0.144,0.098-0.29,0.196-0.429,0.3     c-0.133,0.102-0.262,0.212-0.393,0.321c-0.132,0.11-0.267,0.221-0.395,0.337c-0.127,0.116-0.246,0.242-0.368,0.365     c-0.12,0.123-0.241,0.242-0.356,0.371c-0.117,0.131-0.228,0.271-0.34,0.411c-0.107,0.131-0.212,0.26-0.313,0.398     c-0.109,0.148-0.208,0.302-0.309,0.459c-0.091,0.138-0.185,0.277-0.27,0.421c-0.094,0.16-0.179,0.33-0.267,0.496     c-0.078,0.151-0.158,0.3-0.229,0.454c-0.077,0.169-0.146,0.343-0.214,0.518c-0.049,0.123-0.108,0.24-0.153,0.367L0.615,434.404     c-0.016,0.044-0.023,0.087-0.038,0.129s-0.033,0.079-0.047,0.121c-0.043,0.127-0.067,0.256-0.106,0.385     c-0.052,0.181-0.109,0.365-0.15,0.548c-0.039,0.166-0.067,0.335-0.098,0.502c-0.033,0.183-0.069,0.367-0.092,0.548     c-0.022,0.173-0.033,0.343-0.047,0.514c-0.014,0.179-0.03,0.358-0.035,0.536c-0.005,0.175,0.001,0.348,0.005,0.521     c0.003,0.173,0.004,0.348,0.017,0.518c0.013,0.177,0.035,0.35,0.057,0.525c0.02,0.166,0.037,0.334,0.066,0.5     c0.03,0.175,0.069,0.348,0.108,0.521c0.035,0.16,0.068,0.323,0.112,0.483c0.046,0.171,0.102,0.337,0.156,0.505     c0.05,0.158,0.1,0.317,0.158,0.473c0.061,0.162,0.131,0.321,0.2,0.481c0.067,0.155,0.132,0.308,0.206,0.459     c0.075,0.155,0.158,0.302,0.242,0.452c0.081,0.15,0.162,0.3,0.252,0.448c0.089,0.144,0.186,0.282,0.279,0.421     c0.098,0.144,0.195,0.288,0.3,0.425c0.1,0.135,0.209,0.262,0.317,0.391c0.112,0.133,0.223,0.269,0.341,0.4     c0.114,0.123,0.237,0.242,0.356,0.361c0.125,0.123,0.249,0.247,0.379,0.365c0.128,0.114,0.265,0.223,0.398,0.331     c0.135,0.11,0.269,0.221,0.411,0.323c0.144,0.107,0.293,0.202,0.444,0.3c0.144,0.094,0.286,0.192,0.435,0.279     c0.157,0.092,0.32,0.175,0.482,0.26c0.155,0.079,0.307,0.162,0.467,0.236c0.164,0.077,0.336,0.142,0.507,0.21     c0.128,0.052,0.251,0.112,0.382,0.158c0.048,0.017,0.096,0.029,0.144,0.046c0.035,0.011,0.068,0.027,0.107,0.039     c63.477,20.876,128.813,31.373,194.943,31.373c20.298,0,40.674-0.99,61.09-2.971c85.888-8.342,167.694-33.794,243.147-75.647     c0.125-0.068,0.238-0.15,0.358-0.223c0.156-0.096,0.315-0.188,0.465-0.29c0.146-0.1,0.284-0.206,0.424-0.31     c0.146-0.111,0.293-0.219,0.433-0.336c0.132-0.11,0.256-0.229,0.382-0.346c0.132-0.123,0.266-0.242,0.39-0.371     c0.121-0.123,0.234-0.254,0.348-0.383c0.115-0.129,0.234-0.258,0.341-0.394c0.113-0.135,0.213-0.277,0.315-0.417     c0.101-0.14,0.203-0.275,0.294-0.419c0.096-0.146,0.182-0.298,0.271-0.448c0.084-0.146,0.172-0.289,0.25-0.439     c0.081-0.155,0.153-0.313,0.225-0.469c0.069-0.155,0.143-0.304,0.206-0.461c0.065-0.16,0.12-0.323,0.177-0.485     c0.057-0.16,0.114-0.319,0.162-0.481c0.049-0.162,0.087-0.33,0.129-0.494c0.042-0.166,0.083-0.331,0.116-0.5     c0.033-0.166,0.057-0.334,0.081-0.5c0.025-0.173,0.052-0.341,0.07-0.514c0.017-0.169,0.022-0.337,0.032-0.507     c0.009-0.173,0.019-0.346,0.021-0.521C512,391.393,511.989,391.224,511.981,391.052z M239.06,180.369     c-1.027,11.057-5.317,21.551-12.529,30.315c-9.514,11.561-22.96,18.722-37.861,20.168c-14.9,1.445-29.47-2.994-41.029-12.508     c-8.763-7.211-14.993-16.687-18.128-27.342L239.06,180.369z M81.657,259.421c-9.747,1.27-19.063-1.305-27.808-7.669     c12.961-10.692,33.624-31.132,40.625-57.346l13.531-1.312c3.874,16.324,12.9,30.879,26.079,41.726     c13.982,11.507,31.153,17.639,49.025,17.639c2.529,0,5.073-0.123,7.623-0.371c20.573-1.996,39.137-11.885,52.273-27.846     c12.457-15.136,18.603-34.017,17.503-53.458c0.314-0.704,0.619-1.444,0.907-2.265c0.494-1.412,1.11-3.169,2.298-5.725     c13.079-28.131,54.658-93.536,162.251-107.783l15.653,161.209l-14.631,1.421c-7.752-14.486-28.535-44.589-66.014-40.947     c-3.224,0.313-6.13,2.075-7.9,4.785c-1.771,2.713-2.214,6.081-1.204,9.159l60.375,183.938c-8.115,3.27-16.297,6.338-24.541,9.216     l-43.887-83.051c-1.828-3.461-5.406-5.642-9.321-5.681l-128.872-1.321c-0.036,0-0.073,0-0.109,0     c-2.988,0-5.843,1.252-7.863,3.456c-2.046,2.232-3.048,5.227-2.754,8.243c1.15,11.855-3.37,25.886-12.093,37.526     c-9.159,12.222-21.718,19.941-34.455,21.178c-4.299,0.417-7.923,3.386-9.177,7.519l-11.641,38.353     c-8.12-1.102-16.218-2.392-24.294-3.854l11.563-143.06c0.338-4.144-1.764-8.105-5.385-10.151     c-3.619-2.042-8.098-1.796-11.473,0.629C97.877,253.624,91.196,258.175,81.657,259.421z M367.127,390.523     c-35.63,10.895-72.37,18.216-109.99,21.868c-36.243,3.519-72.339,3.548-108.068,0.114l8.58-28.269     c16.166-3.521,30.957-13.443,42.226-28.483c9.168-12.232,14.88-26.743,16.218-40.574l111.828,1.146L367.127,390.523z      M261.304,455.286c-80.335,7.798-159.968-0.325-236.883-24.118l7.314-20.513c55.667,17.124,112.795,25.739,170.571,25.739     c18.904,0,37.883-0.921,56.894-2.767c76.693-7.444,149.872-29.55,217.694-65.711l10.108,19.269     C416.675,424.657,340.801,447.565,261.304,455.286z"/>
			<path d="M403.659,155.661c5.924-0.573,10.257-5.838,9.682-11.761c-0.575-5.922-5.843-10.257-11.763-9.684     c-5.924,0.577-10.257,5.843-9.682,11.767C392.471,151.903,397.738,156.238,403.659,155.661z"/>
			<path d="M293.363,182.073c1.436,0.658,2.944,0.969,4.427,0.969c4.046,0,7.922-2.315,9.719-6.23     c0.068-0.146,0.137-0.298,0.198-0.444c2.298-5.425-0.236-11.686-5.661-13.984c-5.411-2.294-11.659,0.226-13.968,5.629     c0.008-0.019,0.014-0.038,0.022-0.057l-0.037,0.09c0.002-0.005,0.004-0.008,0.006-0.012     C285.678,173.37,288.036,179.629,293.363,182.073z"/>
			<path d="M309.939,153.494c1.961,1.552,4.296,2.304,6.616,2.304c3.147,0,6.264-1.386,8.37-4.044     c9.858-12.449,33.42-31.202,46.867-35.344c5.629-1.733,8.788-7.703,7.054-13.334c-1.736-5.629-7.705-8.786-13.336-7.054     c-17.913,5.517-45.031,26.983-57.311,42.488C304.541,143.127,305.32,149.838,309.939,153.494z"/>
		</g>
	</g>
</g>
<g>
</g>
<g>
</g>
<g>
</g>
<g>
</g>
<g>
</g>
<g>
</g>
<g>
</g>
<g>
</g>
<g>
</g>
<g>
</g>
<g>
</g>
<g>
</g>
<g>
</g>
<g>
</g>
<g>
</g>
</svg>
