<?xml version="1.0" encoding="iso-8859-1"?>
<!-- Generator: Adobe Illustrator 19.0.0, SVG Export Plug-In . SVG Version: 6.00 Build 0)  -->
<svg xmlns="http://www.w3.org/2000/svg" xmlns:xlink="http://www.w3.org/1999/xlink" version="1.1" id="Layer_1" x="0px" y="0px" viewBox="0 0 511.999 511.999" style="enable-background:new 0 0 511.999 511.999;" xml:space="preserve">
<g>
	<g>
		<g>
			<path d="M480.002,181.336h-60.02L281.516,61.334h37.816c5.89,0,10.667-4.778,10.667-10.667v-40     c0-5.89-4.777-10.667-10.667-10.667h-63.332c-5.891,0-10.667,4.777-10.667,10.667v37.8L92.023,181.336H31.998     c-5.89,0-10.667,4.776-10.667,10.667v64.001c0,5.889,4.777,10.667,10.667,10.667h10.667v234.66     c0,5.892,4.778,10.667,10.667,10.667h160.002c5.889,0,10.667-4.776,10.667-10.667v-85.333c0-17.643,14.355-31.997,32-31.997     c17.643,0,31.997,14.355,31.997,31.997v85.333c0,5.892,4.776,10.667,10.667,10.667h160c5.891,0,10.667-4.776,10.667-10.667     v-234.66H480c5.892,0,10.667-4.778,10.667-10.667v-64.001C490.669,186.112,485.893,181.336,480.002,181.336z M266.669,21.334     h41.996V40h-41.996V21.334z M106.667,196.872L256.002,67.453l51.405,44.551h-43.24c-5.889,0-10.667,4.778-10.667,10.667     c0,5.891,4.778,10.667,10.667,10.667h67.857l73.31,63.535v16.464h-42.665v-21.332c-0.001-5.893-4.776-10.668-10.668-10.668     h-63.999c-5.889,0-10.667,4.776-10.667,10.667v21.332h-42.671v-21.332c0-5.891-4.776-10.667-10.667-10.667h-63.999     c-5.889,0-10.667,4.776-10.667,10.667v21.332h-42.665V196.872z M458.667,245.338c-5.89,0-10.667,4.776-10.667,10.667v191.999     h-29.129c-5.889,0-10.667,4.778-10.667,10.667c0,5.892,4.778,10.667,10.667,10.667H448v21.326H309.333v-74.666     c0-29.407-23.927-53.332-53.334-53.332s-53.332,23.924-53.332,53.332v74.666H64V309.337h43.161     c5.892,0,10.667-4.778,10.667-10.667c0-5.892-4.776-10.667-10.667-10.667H64v-31.997c0-5.892-4.776-10.667-10.667-10.667H42.666     v-42.667h42.667v21.332c0,5.892,4.778,10.667,10.667,10.667h63.999c5.892,0,10.667-4.776,10.667-10.667v-21.332h42.665v21.332     c0,5.892,4.778,10.667,10.667,10.667h64.006c5.891,0,10.667-4.776,10.667-10.667v-21.332h42.665v21.332     c0,5.892,4.778,10.667,10.667,10.667h63.999c5.892,0,10.667-4.776,10.667-10.667v-21.332h42.665v42.667H458.667z"/>
			<path d="M137.806,309.341h0.252c5.892,0,10.667-4.777,10.667-10.667c0-5.892-4.776-10.667-10.667-10.667h-0.252     c-5.892,0-10.667,4.776-10.667,10.667C127.139,304.564,131.914,309.341,137.806,309.341z"/>
			<path d="M388.227,448h-0.254c-5.892,0-10.667,4.778-10.667,10.667c0,5.892,4.776,10.667,10.667,10.667h0.254     c5.889,0,10.667-4.776,10.667-10.667C398.894,452.778,394.118,448,388.227,448z"/>
			<path d="M382.55,322.375c0-5.89-4.776-10.667-10.667-10.667h-38.334c-5.889,0-10.667,4.777-10.667,10.667     c0,5.892,4.778,10.667,10.667,10.667h38.334C377.775,333.042,382.55,328.267,382.55,322.375z"/>
			<path d="M162.718,391.708h-38.333c-5.889,0-10.667,4.776-10.667,10.667c0,5.889,4.778,10.667,10.667,10.667h38.333     c5.893,0,10.667-4.778,10.667-10.667C173.385,396.484,168.61,391.708,162.718,391.708z"/>
		</g>
	</g>
</g>
<g>
</g>
<g>
</g>
<g>
</g>
<g>
</g>
<g>
</g>
<g>
</g>
<g>
</g>
<g>
</g>
<g>
</g>
<g>
</g>
<g>
</g>
<g>
</g>
<g>
</g>
<g>
</g>
<g>
</g>
</svg>
