<?xml version="1.0" encoding="iso-8859-1"?>
<!-- Generator: Adobe Illustrator 19.0.0, SVG Export Plug-In . SVG Version: 6.00 Build 0)  -->
<svg xmlns="http://www.w3.org/2000/svg" xmlns:xlink="http://www.w3.org/1999/xlink" version="1.1" id="Layer_1" x="0px" y="0px" viewBox="0 0 511.999 511.999" style="enable-background:new 0 0 511.999 511.999;" xml:space="preserve">
<g>
	<g>
		<g>
			<path d="M479.998,245.333H387.5c1.183-3.338,1.835-6.927,1.835-10.665V32c0-17.645-14.356-32-32.002-32H154.668     c-17.646,0-32.002,14.355-32.002,32v202.669c0,3.738,0.65,7.327,1.835,10.665h-92.5c-17.645,0-32.002,14.355-32.002,32v202.667     c0,17.645,14.357,32,32.002,32h202.664c8.19,0,15.667-3.096,21.334-8.173c5.664,5.078,13.144,8.173,21.334,8.173h202.662     c17.647,0,32.002-14.355,32.002-32V277.333C512,259.688,497.645,245.333,479.998,245.333z M245.333,480     c0,5.881-4.785,10.665-10.667,10.665H32.002c-5.882,0-10.667-4.783-10.667-10.665V277.334c0-5.882,4.785-10.665,10.667-10.665     h122.667h79.998c5.882,0,10.667,4.783,10.667,10.665V480z M234.666,245.333h-79.998c-5.882,0-10.667-4.785-10.667-10.665V32     c0-5.88,4.785-10.665,10.667-10.665h202.663c5.883,0,10.667,4.785,10.667,10.665v202.669c0,5.88-4.784,10.665-10.667,10.665     h-79.997H234.666z M479.998,490.666H277.335c-5.883,0-10.667-4.783-10.667-10.665V277.334c0-5.882,4.784-10.665,10.667-10.665     h79.997h122.666c5.883,0,10.667,4.783,10.667,10.665V480h0.001C490.666,485.882,485.881,490.666,479.998,490.666z"/>
			<path d="M291.534,64.003h0.833c5.892,0,10.667-4.776,10.667-10.667c0-5.889-4.776-10.667-10.667-10.667h-0.833     c-5.892,0-10.667,4.778-10.667,10.667C280.867,59.228,285.642,64.003,291.534,64.003z"/>
			<path d="M346.667,213.336v-160c0-5.889-4.777-10.667-10.667-10.667s-10.667,4.778-10.667,10.667v149.333H186.666V64.003h73.829     c5.891,0,10.667-4.776,10.667-10.667c0-5.889-4.776-10.667-10.667-10.667h-84.496c-5.893,0-10.667,4.778-10.667,10.667v160     c0,5.889,4.775,10.667,10.667,10.667h160.001C341.891,224.003,346.667,219.226,346.667,213.336z"/>
			<path d="M255.933,84.16c-6.139,0-12.144,2.271-13.611,6.94l-24.819,81.398c-0.135,0.533-0.267,1.067-0.267,1.467     c0,4.94,7.606,8.542,13.341,8.542c3.338,0,6.007-1.069,6.806-3.869l4.538-16.682h28.157l4.536,16.682     c0.8,2.8,3.469,3.869,6.805,3.869c5.738,0,13.347-3.602,13.347-8.542c0-0.4-0.134-0.933-0.269-1.467L269.544,91.1     C268.075,86.431,262.072,84.16,255.933,84.16z M246.192,145.945l9.741-35.764l9.741,35.764H246.192z"/>
			<path d="M163.692,353.647c0-18.947-13.345-23.752-26.687-23.752h-27.355c-4.534,0-9.074,2.136-9.074,6.403v84.865     c0,3.334,3.47,6.271,9.074,6.271h29.623c15.078,0,26.82-7.609,26.82-28.69v-2.798c0-13.347-5.602-18.283-13.743-21.352     C159.421,371.53,163.692,364.454,163.692,353.647z M121.257,348.043h14.012c5.07,0,7.605,4.671,7.605,9.34     c0,4.536-2.535,9.207-7.605,9.207h-14.013V348.043z M145.276,397.011c0,8.542-4.004,12.278-10.673,12.278h-13.347v-26.687h13.347     c6.668,0,10.673,3.202,10.673,12.274V397.011z"/>
			<path d="M411.425,399.951c0-8.007-3.336-9.878-10.541-9.878c-5.337,0-9.877,1.338-10.276,6.271     c-0.401,5.209-1.068,13.347-11.742,13.347c-7.739,0-12.141-4.271-12.141-13.347v-35.36c0-9.076,4.402-13.345,12.009-13.345     c11.34,0,11.74,8.54,11.875,12.013c0.268,4.8,4.803,6.271,10.408,6.271c7.073,0,10.409-1.871,10.409-9.878     c0-16.945-14.414-26.554-33.492-26.554c-17.484,0-32.026,8.54-32.026,31.491v35.36c0,22.952,14.544,31.493,32.026,31.493     C397.013,427.839,411.425,417.696,411.425,399.951z"/>
			<path d="M343.133,448h-0.833c-5.89,0-10.667,4.778-10.667,10.667c0,5.892,4.777,10.667,10.667,10.667h0.833     c5.891,0,10.667-4.776,10.667-10.667C353.8,452.778,349.024,448,343.133,448z"/>
			<path d="M458.667,287.998h-160c-5.892,0-10.667,4.776-10.667,10.667v160.002c0,5.891,4.776,10.667,10.667,10.667     c5.89,0,10.667-4.776,10.667-10.667V309.332H448V448h-73.828c-5.89,0-10.667,4.778-10.667,10.667     c0,5.891,4.777,10.667,10.667,10.667h84.495c5.892,0,10.667-4.776,10.667-10.667V298.665     C469.334,292.774,464.56,287.998,458.667,287.998z"/>
			<path d="M213.334,287.998h-160c-5.891,0-10.667,4.776-10.667,10.667v84.496c0,5.889,4.776,10.667,10.667,10.667     c5.892,0,10.667-4.778,10.667-10.667v-73.829h138.665V448H53.334c-5.891,0-10.667,4.778-10.667,10.667     c0,5.891,4.776,10.667,10.667,10.667h160c5.89,0,10.667-4.776,10.667-10.667V298.665     C224.001,292.774,219.225,287.998,213.334,287.998z"/>
			<path d="M53.334,425.703c5.892,0,10.667-4.778,10.667-10.667v-0.833c0-5.892-4.776-10.667-10.667-10.667     c-5.891,0-10.667,4.776-10.667,10.667v0.833C42.667,420.926,47.444,425.703,53.334,425.703z"/>
		</g>
	</g>
</g>
<g>
</g>
<g>
</g>
<g>
</g>
<g>
</g>
<g>
</g>
<g>
</g>
<g>
</g>
<g>
</g>
<g>
</g>
<g>
</g>
<g>
</g>
<g>
</g>
<g>
</g>
<g>
</g>
<g>
</g>
</svg>
