<?xml version="1.0" encoding="iso-8859-1"?>
<!-- Generator: Adobe Illustrator 19.0.0, SVG Export Plug-In . SVG Version: 6.00 Build 0)  -->
<svg xmlns="http://www.w3.org/2000/svg" xmlns:xlink="http://www.w3.org/1999/xlink" version="1.1" id="Layer_1" x="0px" y="0px" viewBox="0 0 511.999 511.999" style="enable-background:new 0 0 511.999 511.999;" xml:space="preserve">
<g>
	<g>
		<g>
			<path d="M458.667,399.047h-0.031c6.711-8.921,10.694-20.005,10.694-32.002c0-29.407-23.924-53.332-53.332-53.332h-0.027     c6.711-8.919,10.694-20.001,10.694-31.997c0-29.411-23.924-53.336-53.332-53.336h-0.027c6.711-8.92,10.694-20.001,10.694-31.998     c0-29.407-23.927-53.332-53.336-53.332h-42.667V102.26c12.945-9.741,21.332-25.227,21.332-42.64     c0-29.407-23.924-53.332-53.332-53.332c-29.41,0-53.336,23.924-53.336,53.332c0,17.412,8.39,32.901,21.337,42.642v40.788H181.33     c-29.407,0-53.332,23.924-53.332,53.332c0,11.997,3.983,23.078,10.694,31.998h-0.027c-29.407,0-53.332,23.925-53.332,53.336     c0,11.996,3.983,23.077,10.694,31.997h-0.027c-29.407-0.001-53.332,23.923-53.332,53.331c0,11.996,3.983,23.081,10.696,32.002     h-0.033C23.924,399.047,0,422.971,0,452.379c0,29.407,23.924,53.332,53.332,53.332h405.335c29.407,0,53.332-23.924,53.332-53.332     C512,422.971,488.076,399.047,458.667,399.047z M223.998,59.619c-0.001-17.643,14.356-31.996,32.001-31.996     c17.645,0,31.997,14.354,31.997,31.997c0,12.056-6.702,22.573-16.576,28.028c-0.171,0.095-0.344,0.186-0.516,0.276     c-0.343,0.182-0.689,0.365-1.042,0.534c-0.468,0.227-0.944,0.443-1.425,0.645c-0.258,0.11-0.523,0.207-0.785,0.31     c-0.335,0.13-0.671,0.259-1.008,0.379c-0.238,0.083-0.475,0.163-0.713,0.242c-0.422,0.138-0.85,0.267-1.279,0.386     c-0.162,0.046-0.323,0.096-0.487,0.14c-0.612,0.161-1.231,0.306-1.854,0.431c-0.085,0.018-0.173,0.03-0.26,0.047     c-0.54,0.103-1.082,0.193-1.627,0.269c-0.177,0.025-0.352,0.046-0.529,0.067c-0.477,0.06-0.958,0.106-1.44,0.143     c-0.177,0.013-0.352,0.029-0.529,0.039c-0.64,0.038-1.281,0.064-1.925,0.064c-0.644,0-1.285-0.026-1.925-0.064     c-0.175-0.011-0.35-0.026-0.525-0.039c-0.485-0.037-0.966-0.084-1.448-0.143c-0.173-0.02-0.346-0.043-0.518-0.065     c-0.553-0.077-1.104-0.167-1.652-0.273c-0.077-0.016-0.158-0.027-0.236-0.043c-0.627-0.126-1.25-0.272-1.869-0.434     c-0.153-0.041-0.3-0.086-0.452-0.129c-0.444-0.124-0.883-0.257-1.321-0.4c-0.227-0.075-0.454-0.151-0.677-0.23     c-0.361-0.126-0.719-0.263-1.073-0.403c-0.242-0.095-0.487-0.186-0.725-0.287c-0.494-0.207-0.979-0.429-1.462-0.661     c-0.325-0.157-0.642-0.326-0.96-0.494c-0.206-0.108-0.413-0.215-0.614-0.328C230.686,82.166,223.998,71.66,223.998,59.619z      M266.663,111.883v31.162h-21.33v-31.162c3.449,0.703,7.015,1.073,10.665,1.073C259.651,112.956,263.218,112.585,266.663,111.883     z M181.33,164.385h149.335c17.647,0,32.002,14.353,32.002,31.997c0,17.643-14.355,31.998-32.002,31.998H181.33     c-17.643,0-31.997-14.356-31.997-31.998C149.333,178.738,163.687,164.385,181.33,164.385z M138.665,249.714h42.665h149.335     h42.669c17.645,0,31.997,14.354,31.997,32.002c0,17.643-14.353,31.997-31.997,31.997H138.665     c-17.643,0-31.997-14.355-31.997-31.997C106.668,264.069,121.023,249.714,138.665,249.714z M96.001,335.048h42.665h234.668     h42.665c17.645,0,31.997,14.353,31.997,31.997s-14.353,32.002-31.997,32.002H96.001c-17.643,0-31.997-14.357-31.997-32.002     C64.003,349.401,78.358,335.048,96.001,335.048z M458.667,484.376H53.332c-17.643,0-31.997-14.355-31.997-31.997     c0-17.645,14.355-31.997,31.997-31.997h42.669h319.997h42.669c17.645,0,31.997,14.353,31.997,31.997     C490.666,470.021,476.313,484.376,458.667,484.376z"/>
			<path d="M157.715,441.712H78.387c-5.889,0-10.667,4.776-10.667,10.667c0,5.889,4.777,10.667,10.667,10.667h79.327     c5.892,0,10.667-4.778,10.667-10.667C168.382,446.487,163.606,441.712,157.715,441.712z"/>
			<path d="M188.608,441.716h-0.25c-5.892,0-10.667,4.776-10.667,10.667c0,5.889,4.776,10.667,10.667,10.667h0.25     c5.892,0,10.667-4.778,10.667-10.667C199.275,446.491,194.5,441.716,188.608,441.716z"/>
			<path d="M318.222,292.383l55.113-0.004c5.89,0,10.665-4.777,10.665-10.669c0-5.89-4.776-10.665-10.667-10.665l-55.113,0.004     c-5.892,0-10.667,4.775-10.667,10.667C307.553,287.607,312.33,292.383,318.222,292.383z"/>
			<path d="M287.324,292.387h0.256c5.892,0,10.667-4.778,10.667-10.667c0-5.893-4.776-10.667-10.667-10.667h-0.256     c-5.889,0-10.667,4.776-10.667,10.667C276.657,287.61,281.434,292.387,287.324,292.387z"/>
		</g>
	</g>
</g>
<g>
</g>
<g>
</g>
<g>
</g>
<g>
</g>
<g>
</g>
<g>
</g>
<g>
</g>
<g>
</g>
<g>
</g>
<g>
</g>
<g>
</g>
<g>
</g>
<g>
</g>
<g>
</g>
<g>
</g>
</svg>
