<?xml version="1.0" encoding="iso-8859-1"?>
<!-- Generator: Adobe Illustrator 19.0.0, SVG Export Plug-In . SVG Version: 6.00 Build 0)  -->
<svg xmlns="http://www.w3.org/2000/svg" xmlns:xlink="http://www.w3.org/1999/xlink" version="1.1" id="Layer_1" x="0px" y="0px" viewBox="0 0 512 512" style="enable-background:new 0 0 512 512;" xml:space="preserve">
<g>
	<g>
		<g>
			<path d="M466.919,298.712c31.076-13.649,50.079-47.254,43.929-82.133c-6.084-34.507-34.855-59.974-69.36-62.155     c15.022-30.432,7.977-68.38-19.149-91.142c-13.555-11.373-30.752-17.637-48.425-17.637c-16.268,0-31.847,5.194-44.662,14.615     c-8.047-32.973-37.837-57.517-73.252-57.517c-35.415,0-65.205,24.543-73.252,57.516c-12.812-9.421-28.392-14.615-44.659-14.615     c-17.672,0-34.871,6.264-48.428,17.639c-27.125,22.761-34.169,60.707-19.143,91.143c-34.507,2.178-63.279,27.645-69.364,62.157     c-6.149,34.88,12.851,68.478,43.925,82.127c-24.531,23.456-30.892,61.53-13.188,92.204c13.43,23.258,38.475,37.705,65.356,37.703     c7.148,0,14.251-1.029,21.088-3.032c-3.714,33.738,15.883,66.995,49.162,79.108c8.322,3.03,16.995,4.565,25.779,4.565     c25.482,0,48.944-12.989,62.728-33.6c13.782,20.614,37.242,33.6,62.722,33.6c0.002,0,0.004,0,0.006,0     c8.788,0,17.462-1.536,25.781-4.565c33.275-12.112,52.875-45.37,49.16-79.108c6.834,2.002,13.938,3.034,21.088,3.032     c26.883-0.002,51.927-14.449,65.356-37.708C497.817,360.243,491.456,322.174,466.919,298.712z M461.635,380.242     c-9.63,16.679-27.594,27.04-46.88,27.04c-9.422,0.001-18.745-2.507-26.964-7.251c-1.554-0.898-3.073-1.878-4.512-2.912     c-3.961-2.848-9.347-2.644-13.083,0.49c-3.738,3.134-4.871,8.403-2.756,12.797c0.763,1.588,1.463,3.253,2.081,4.951     c10.193,28.013-4.3,59.096-32.309,69.291c-5.974,2.175-12.193,3.277-18.485,3.277c-22.64,0.002-43.053-14.299-50.804-35.594     c-0.606-1.663-1.141-3.39-1.589-5.138c-1.213-4.717-5.463-8.016-10.333-8.016c-4.871,0-9.122,3.298-10.333,8.016     c-0.45,1.752-0.986,3.482-1.592,5.144c-7.749,21.287-28.164,35.588-50.804,35.588c-6.289,0-12.508-1.102-18.483-3.277     c-28.009-10.195-42.504-41.278-32.311-69.284c0.606-1.663,1.311-3.338,2.096-4.98c2.103-4.396,0.958-9.659-2.781-12.784     c-3.738-3.128-9.12-3.323-13.074-0.475c-1.427,1.027-2.946,2.007-4.507,2.909c-8.219,4.744-17.545,7.251-26.969,7.251     c-19.285,0.001-37.247-10.359-46.876-27.036c-14.904-25.814-6.025-58.944,19.772-73.844c1.554-0.894,3.171-1.721,4.805-2.462     c4.44-2.011,6.951-6.776,6.103-11.574c-0.848-4.798-4.84-8.411-9.699-8.779c-1.758-0.133-3.552-0.359-5.334-0.675     c-29.355-5.176-49.027-33.268-43.851-62.624c4.565-25.888,26.923-44.679,53.16-44.679c3.148,0,6.332,0.279,9.48,0.835     c1.721,0.3,3.488,0.702,5.251,1.192c4.692,1.302,9.673-0.734,12.103-4.955c2.431-4.221,1.694-9.551-1.79-12.956     c-1.279-1.248-2.511-2.575-3.655-3.937c-19.161-22.837-16.174-57.004,6.66-76.163c9.721-8.156,22.05-12.647,34.715-12.647     c16.041,0,31.146,7.038,41.443,19.308c1.144,1.363,2.238,2.807,3.248,4.288c2.75,4.023,7.872,5.67,12.449,4.009     c4.58-1.663,7.45-6.215,6.978-11.062c-0.175-1.783-0.262-3.595-0.262-5.388c0-29.806,24.249-54.057,54.057-54.057     c29.807,0,54.057,24.249,54.057,54.057c0,1.796-0.087,3.606-0.262,5.378c-0.477,4.849,2.389,9.406,6.969,11.071     c4.58,1.665,9.707,0.017,12.455-4.007c1.008-1.475,2.103-2.919,3.246-4.286c10.301-12.272,25.408-19.31,41.449-19.31     c12.665,0,24.992,4.492,34.711,12.645c22.835,19.16,25.825,53.327,6.674,76.154c-1.15,1.367-2.385,2.698-3.669,3.954     c-3.482,3.408-4.213,8.744-1.775,12.961c2.44,4.219,7.426,6.255,12.119,4.934c1.7-0.477,3.465-0.879,5.238-1.192     c3.13-0.553,6.311-0.831,9.457-0.831c26.244,0,48.604,18.789,53.169,44.677c5.176,29.357-14.495,57.452-43.851,62.628     c-1.75,0.31-3.546,0.536-5.334,0.671c-4.861,0.368-8.853,3.981-9.701,8.779c-0.848,4.798,1.665,9.561,6.103,11.574     c1.611,0.73,3.227,1.561,4.79,2.461C467.659,321.302,476.536,354.43,461.635,380.242z"/>
			<path d="M259.675,383.949c-1.227,0.035-2.45,0.052-3.675,0.052c-70.581,0-128.002-57.419-128.002-127.997     c0-11.179,1.467-22.327,4.361-33.132c1.523-5.692-1.856-11.54-7.546-13.063c-5.694-1.525-11.54,1.856-13.063,7.547     c-3.375,12.605-5.086,25.607-5.086,38.648c0,82.341,66.993,149.332,149.337,149.332c1.432,0,2.861-0.018,4.294-0.061     c5.888-0.171,10.523-5.084,10.353-10.972C270.476,388.413,265.532,383.757,259.675,383.949z"/>
			<path d="M256.001,149.33c-58.82,0-106.671,47.851-106.671,106.669c0,58.82,47.851,106.671,106.671,106.671     c58.817,0,106.669-47.851,106.669-106.671C362.669,197.182,314.818,149.33,256.001,149.33z M256.001,341.334     c-47.053,0-85.336-38.282-85.336-85.336s38.282-85.334,85.336-85.334s85.334,38.28,85.334,85.334     C341.334,303.053,303.054,341.334,256.001,341.334z"/>
			<path d="M277.863,195.847c-5.534-2.013-11.657,0.844-13.669,6.379c-2.013,5.537,0.844,11.657,6.379,13.671     c16.803,6.109,28.094,22.227,28.094,40.106c0,3.725-0.487,7.441-1.452,11.043c-1.525,5.69,1.852,11.538,7.544,13.063     c0.925,0.247,1.852,0.367,2.765,0.367c4.711,0,9.021-3.146,10.298-7.911c1.445-5.402,2.179-10.974,2.179-16.561     C320.001,229.185,303.067,205.009,277.863,195.847z"/>
			<path d="M289.203,379.623l-0.597,0.156c-5.694,1.515-9.082,7.357-7.57,13.051c1.271,4.776,5.583,7.93,10.303,7.93     c0.907,0,1.829-0.118,2.748-0.363l0.487-0.127c5.701-1.484,9.122-7.309,7.638-13.009     C300.728,381.558,294.902,378.137,289.203,379.623z"/>
			<path d="M240.238,193.969c-0.302,0.075-0.602,0.155-0.902,0.238c-5.677,1.579-8.997,7.461-7.417,13.136     c1.312,4.719,5.6,7.811,10.27,7.811c0.948,0,1.911-0.127,2.867-0.394l0.425-0.111c5.711-1.448,9.168-7.25,7.719-12.961     C251.752,195.978,245.952,192.52,240.238,193.969z"/>
		</g>
	</g>
</g>
<g>
</g>
<g>
</g>
<g>
</g>
<g>
</g>
<g>
</g>
<g>
</g>
<g>
</g>
<g>
</g>
<g>
</g>
<g>
</g>
<g>
</g>
<g>
</g>
<g>
</g>
<g>
</g>
<g>
</g>
</svg>
