<?xml version="1.0" encoding="iso-8859-1"?>
<!-- Generator: Adobe Illustrator 19.0.0, SVG Export Plug-In . SVG Version: 6.00 Build 0)  -->
<svg xmlns="http://www.w3.org/2000/svg" xmlns:xlink="http://www.w3.org/1999/xlink" version="1.1" id="Layer_1" x="0px" y="0px" viewBox="0 0 512 512" style="enable-background:new 0 0 512 512;" xml:space="preserve">
<g>
	<g>
		<g>
			<path d="M512,85.333c0-23.528-19.138-42.668-42.665-42.668c-23.529,0-42.669,19.14-42.669,42.668     c0,13.937,6.719,26.334,17.087,34.126c-4.029,5.354-6.424,12.006-6.424,19.208v10.667H74.669v-10.667     c0-7.2-2.392-13.851-6.422-19.205c10.37-7.791,17.089-20.189,17.089-34.128c0-23.528-19.14-42.668-42.667-42.668     C19.14,42.665,0,61.806,0,85.333c0,13.938,6.719,26.335,17.089,34.127c-4.029,5.354-6.422,12.005-6.422,19.206v298.666     c0,17.646,14.355,32.002,32.002,32.002c17.645,0,32-14.356,32-32.002v-31.997h362.66v31.997c0,17.646,14.355,32.002,32,32.002     h0.004c17.643,0,31.998-14.356,31.998-32.002V138.666c0-7.2-2.392-13.85-6.42-19.204C505.281,111.672,512,99.273,512,85.333z      M53.334,437.334c0,5.882-4.785,10.667-10.665,10.667h-0.002c-5.882,0-10.665-4.785-10.665-10.667V138.666     c0-5.872,4.771-10.65,10.641-10.666c0.009,0,0.017,0.001,0.027,0.001c0.009,0,0.017-0.001,0.027-0.001     c5.867,0.016,10.638,4.794,10.638,10.666V437.334z M42.696,106.666c-0.011,0-0.02-0.001-0.029-0.001s-0.019,0.001-0.027,0.001     c-11.749-0.015-21.306-9.578-21.306-21.332C21.335,73.571,30.906,64,42.669,64s21.332,9.571,21.332,21.333     C64.001,97.088,54.447,106.651,42.696,106.666z M74.669,213.335h80.055c-1.183,3.339-1.836,6.927-1.836,10.667v64.004     c0,3.738,0.65,7.325,1.834,10.663H74.669V213.335z M437.328,384.001H74.669v-21.33h68.656c5.892,0,10.667-4.777,10.667-10.667     s-4.776-10.667-10.667-10.667H74.669v-21.332h110.14c0.027,0,0.054,0.002,0.081,0.002s0.054-0.002,0.083-0.002h142.054     c0.029,0,0.057,0.002,0.083,0.002s0.054-0.002,0.081-0.002h110.137V384.001z M174.222,288.006v-64.004     c0-5.881,4.785-10.665,10.667-10.665s10.665,4.784,10.665,10.665v64.004c0,5.867-4.763,10.641-10.624,10.663h-0.085     C178.985,298.646,174.222,293.873,174.222,288.006z M296.943,298.669h-81.886c1.183-3.338,1.834-6.925,1.834-10.663v-64.004     c-0.001-3.74-0.651-7.328-1.836-10.667h81.89c-1.185,3.339-1.836,6.927-1.836,10.667v64.004     C295.109,291.744,295.758,295.331,296.943,298.669z M316.442,288.006v-64.004c0-5.881,4.785-10.665,10.667-10.665     c5.88,0,10.665,4.784,10.665,10.665v64.004c0,5.867-4.763,10.641-10.626,10.663h-0.083     C321.205,298.646,316.442,293.873,316.442,288.006z M437.329,298.669h-80.052c1.183-3.338,1.834-6.925,1.834-10.663v-64.004     c0-3.74-0.653-7.328-1.836-10.667h80.055V298.669z M437.329,192.001H74.669v-21.332h362.66V192.001z M479.996,437.333     c0,5.882-4.783,10.667-10.663,10.667h-0.004c-5.88,0-10.665-4.785-10.665-10.667V138.666c0-5.872,4.771-10.651,10.643-10.666     c0.011,0,0.019,0.001,0.029,0.001c0.009,0,0.017-0.001,0.025-0.001c5.867,0.016,10.636,4.794,10.636,10.666V437.333z      M469.36,106.666c-0.011,0-0.021-0.001-0.031-0.001c-0.008,0-0.015,0.001-0.023,0.001C457.554,106.649,448,97.088,448,85.333     C448.001,73.571,457.571,64,469.335,64c11.761,0,21.33,9.571,21.33,21.333C490.665,97.089,481.111,106.651,469.36,106.666z"/>
			<path d="M174.224,341.338h-0.254c-5.892,0-10.667,4.776-10.667,10.667c0,5.89,4.776,10.667,10.667,10.667h0.254     c5.889,0,10.667-4.777,10.667-10.667C184.891,346.115,180.115,341.338,174.224,341.338z"/>
		</g>
	</g>
</g>
<g>
</g>
<g>
</g>
<g>
</g>
<g>
</g>
<g>
</g>
<g>
</g>
<g>
</g>
<g>
</g>
<g>
</g>
<g>
</g>
<g>
</g>
<g>
</g>
<g>
</g>
<g>
</g>
<g>
</g>
</svg>
