<?xml version="1.0" encoding="iso-8859-1"?>
<!-- Generator: Adobe Illustrator 19.0.0, SVG Export Plug-In . SVG Version: 6.00 Build 0)  -->
<svg xmlns="http://www.w3.org/2000/svg" xmlns:xlink="http://www.w3.org/1999/xlink" version="1.1" id="Layer_1" x="0px" y="0px" viewBox="0 0 511.999 511.999" style="enable-background:new 0 0 511.999 511.999;" xml:space="preserve">
<g>
	<g>
		<g>
			<path d="M250.262,376.239c1.75,1.117,3.744,1.675,5.739,1.675c1.994,0,3.987-0.558,5.738-1.675     c29.731-18.974,45.634-30.781,55.601-46.572c8.967-14.203,9.561-31.318,1.586-45.783c-7.412-13.445-21.031-21.797-35.542-21.797     c-6.997,0-16.876,1.915-27.383,10.001c-10.509-8.086-20.388-10.001-27.386-10.001c-14.51,0-28.128,8.352-35.54,21.799     c-7.975,14.465-7.382,31.578,1.583,45.78C204.627,345.459,220.53,357.267,250.262,376.239z M211.756,294.186     c3.661-6.639,10.12-10.763,16.858-10.763c6.452,0,13.235,3.584,19.617,10.367c2.016,2.143,4.827,3.358,7.769,3.358     c2.942,0,5.753-1.215,7.769-3.358c6.38-6.782,13.163-10.367,19.614-10.367c6.74,0,13.199,4.124,16.86,10.762     c4.164,7.553,3.812,16.561-0.944,24.093c-7.231,11.456-19.979,21.209-43.298,36.293c-23.322-15.083-36.07-24.835-43.303-36.293     C207.944,310.747,207.592,301.742,211.756,294.186z"/>
			<path d="M254.557,90.047h-0.254c-5.891,0-10.667,4.777-10.667,10.667s4.776,10.667,10.667,10.667h0.254     c5.891,0,10.667-4.777,10.667-10.667S260.449,90.047,254.557,90.047z"/>
			<path d="M267.343,437.332c0,5.89,4.776,10.667,10.667,10.667h79.324c5.89,0,10.667-4.777,10.667-10.667     c0-5.891-4.776-10.667-10.667-10.667H278.01C272.119,426.664,267.343,431.441,267.343,437.332z"/>
			<path d="M247.365,426.665h-0.254c-5.89,0-10.667,4.777-10.667,10.667c0,5.891,4.777,10.667,10.667,10.667h0.254     c5.891,0,10.667-4.776,10.667-10.667C258.033,431.442,253.257,426.665,247.365,426.665z"/>
			<path d="M433.777,149.335h-23.341c-0.805-18.264-3.832-30.639-9.536-39.328c-7.035-10.713-17.049-14.534-26.733-18.228     c-16.864-6.433-37.849-14.439-61.888-64.402c-1.777-3.693-5.513-6.042-9.613-6.042h-93.334c-4.099,0-7.836,2.349-9.613,6.043     c-24.036,49.962-45.023,57.968-61.887,64.402c-9.684,3.694-19.698,7.515-26.733,18.228c-5.706,8.69-8.732,21.063-9.538,39.328     H78.223C35.091,149.335,0,184.426,0,227.557c0,43.133,35.091,78.224,78.223,78.224h23.109v147.552     c0,20.585,16.748,37.331,37.333,37.331h234.666c20.587,0,37.334-16.747,37.334-37.331V305.781h23.111     c43.133,0,78.223-35.091,78.223-78.224C512,184.426,476.909,149.335,433.777,149.335z M101.332,241.893H74.339     c-7.709,0-14.222-6.513-14.222-14.224c0-7.711,6.512-14.225,14.222-14.225h26.993V241.893z M101.332,192.11H74.339     c-19.605,0-35.556,15.952-35.556,35.559s15.951,35.558,35.556,35.558h26.993v21.22H78.223v-0.001     c-31.368,0-56.888-25.52-56.888-56.889c0-31.368,25.52-56.888,56.888-56.888h23.109V192.11z M128.933,121.717     c3.112-4.737,7.552-6.59,16.504-10.005c0.289-0.111,0.581-0.222,0.876-0.334h77.347c5.89,0,10.667-4.777,10.667-10.667     s-4.777-10.667-10.667-10.667h-41.508c10.733-9.959,22.224-24.687,33.799-47.375h80.096     c26.699,52.327,52.938,62.337,70.515,69.044c8.952,3.415,13.393,5.268,16.504,10.005c3.384,5.152,5.371,14.236,6.025,27.618     H122.908C123.561,135.953,125.549,126.87,128.933,121.717z M389.331,202.776v49.783v42.555v158.219     c0,8.821-7.177,15.997-16,15.997H138.665c-8.822,0-15.999-7.177-15.999-15.997V295.114v-42.555v-49.783v-32.108h266.664V202.776z      M410.666,213.445h26.993c7.709,0,14.225,6.513,14.225,14.225c0,7.71-6.516,14.224-14.225,14.224h-26.993V213.445z      M433.777,284.447h-23.111v-21.22h26.993c19.607,0,35.559-15.951,35.559-35.558s-15.952-35.559-35.559-35.559h-26.993v-21.441     h23.111c31.368,0,56.888,25.52,56.888,56.888C490.666,258.928,465.145,284.447,433.777,284.447z"/>
		</g>
	</g>
</g>
<g>
</g>
<g>
</g>
<g>
</g>
<g>
</g>
<g>
</g>
<g>
</g>
<g>
</g>
<g>
</g>
<g>
</g>
<g>
</g>
<g>
</g>
<g>
</g>
<g>
</g>
<g>
</g>
<g>
</g>
</svg>
