<?xml version="1.0" encoding="iso-8859-1"?>
<!-- Generator: Adobe Illustrator 19.0.0, SVG Export Plug-In . SVG Version: 6.00 Build 0)  -->
<svg xmlns="http://www.w3.org/2000/svg" xmlns:xlink="http://www.w3.org/1999/xlink" version="1.1" id="Layer_1" x="0px" y="0px" viewBox="0 0 511.999 511.999" style="enable-background:new 0 0 511.999 511.999;" xml:space="preserve">
<g>
	<g>
		<g>
			<path d="M510.571,176.502c-16.36-28.34-78.047-118.779-121.573-143.907c-4.183-2.415-9.462-1.719-12.875,1.696     c-26.964,26.965-71.87,43.064-120.121,43.064c-48.252,0-93.159-16.099-120.123-43.065c-3.415-3.412-8.696-4.109-12.878-1.695     C79.482,57.722,17.791,148.161,1.429,176.502c-1.683,2.916-1.891,6.458-0.559,9.551c10.727,24.916,37.303,53.635,66.133,71.469     c4.231,2.616,9.708,1.963,13.204-1.579c6.923-7.015,23.302-25.306,37.91-42.985c-1.17,29.819-9.076,79.553-15.781,121.732     c-8.112,51.034-16.502,103.806-16.502,135.476c0,5.892,4.776,10.667,10.667,10.667H415.5c0.006,0,0.014-0.001,0.021,0     c5.892,0,10.667-4.776,10.667-10.667c0-0.236-0.009-0.469-0.022-0.701c-0.121-31.745-8.446-84.115-16.499-134.773     c-6.704-42.179-14.611-91.915-15.78-121.734c14.609,17.681,30.987,35.971,37.91,42.985c3.495,3.539,8.971,4.194,13.203,1.579     c28.833-17.835,55.408-46.556,66.131-71.47C512.461,182.96,512.254,179.419,510.571,176.502z M440.988,234.623     c-12.432-13.495-34.26-38.747-46.59-55.424c-2.288-3.094-6.064-4.716-9.883-4.245c-3.818,0.469-7.088,2.96-8.556,6.517     c-8.25,19.99-0.731,72.487,12.636,156.572c7.103,44.689,14.422,90.73,15.947,121.457H107.456     c1.525-30.728,8.844-76.77,15.949-121.459c13.366-84.084,20.888-136.581,12.638-156.571c-1.469-3.556-4.737-6.047-8.556-6.517     c-3.821-0.475-7.594,1.151-9.882,4.245c-12.328,16.674-34.158,41.927-46.59,55.424c-20.414-14.295-39.067-34.445-48.287-52.242     C44.87,145.51,93.369,79.469,127.128,55.32c4.581,4.03,9.487,7.8,14.674,11.312c-10.596,10.491-21.531,22.444-29.703,31.64     c-3.914,4.403-3.516,11.146,0.889,15.06c2.031,1.805,4.56,2.692,7.082,2.692c2.942,0,5.869-1.21,7.978-3.581     c12.3-13.841,23.735-25.883,32.898-34.674c27.293,13.541,60.082,20.92,95.055,20.92c51.041,0,97.438-15.712,128.87-43.37     c33.764,24.152,82.261,90.193,104.401,127.061C480.055,200.177,461.403,220.326,440.988,234.623z"/>
			<path d="M359.117,356.948c5.825-0.88,9.834-6.316,8.955-12.141L368,344.341c-0.941-5.817-6.422-9.773-12.233-8.829     c-5.816,0.94-9.768,6.417-8.828,12.233l0.039,0.25c0.798,5.285,5.346,9.075,10.534,9.075     C358.04,357.07,358.577,357.031,359.117,356.948z"/>
			<path d="M107.147,119.987c-4.483-3.656-11.045-3.06-14.806,1.286c-0.146,0.163-0.285,0.328-0.364,0.422     c-3.744,4.55-3.09,11.271,1.458,15.015c1.985,1.634,4.385,2.43,6.772,2.43c2.994,0,5.965-1.253,8.068-3.679     c0.162-0.182,0.317-0.365,0.4-0.467C112.397,130.429,111.712,123.71,107.147,119.987z"/>
			<path d="M360.492,365.036c-5.822,0.901-9.811,6.352-8.909,12.175c2.548,16.454,4.482,29.805,6.086,42.015     c0.415,3.159,0.835,6.368,1.246,9.613c0.683,5.391,5.275,9.33,10.569,9.33c0.447,0,0.898-0.028,1.353-0.085     c5.845-0.738,9.984-6.076,9.244-11.922c-0.415-3.278-0.84-6.521-1.259-9.715c-1.625-12.377-3.581-25.882-6.156-42.503     C371.763,368.123,366.317,364.137,360.492,365.036z"/>
			<path d="M345.16,189.386c-2.223-4.528-4.984-7.977-7.419-11.018c-2.779-3.469-4.35-5.517-4.35-7.274     c0-1.758,1.572-3.806,4.35-7.275c2.435-3.042,5.196-6.489,7.417-11.015c3.275-6.669,4.375-17.754-0.951-26.331     c-3.256-5.245-10.013-11.505-23.718-11.547c-0.156,0-0.306,0-0.463,0c-33.971,0-52.283,11.44-62.117,22.991     c-0.633-0.036-1.267-0.06-1.908-0.06c-0.642,0-1.276,0.022-1.908,0.059c-9.878-11.612-28.313-23.131-62.58-22.99     c-13.704,0.043-20.463,6.303-23.719,11.547c-5.325,8.578-4.226,19.662-0.954,26.328c2.222,4.529,4.984,7.978,7.42,11.018     c2.778,3.469,4.35,5.517,4.35,7.275c0,1.758-1.573,3.805-4.35,7.274c-2.436,3.042-5.198,6.49-7.419,11.016     c-3.274,6.669-4.374,17.754,0.953,26.331c3.257,5.244,10.016,11.504,23.72,11.546c0.156,0.001,0.306,0.001,0.463,0.001     c33.969,0,52.282-11.442,62.115-22.993c0.632,0.035,1.267,0.059,1.908,0.059s1.276-0.022,1.908-0.059     c9.832,11.553,28.141,22.993,62.117,22.993c0.154,0,0.308,0,0.463-0.001c13.705-0.043,20.463-6.302,23.718-11.546     C349.532,207.137,348.433,196.053,345.16,189.386z M233.005,195.056c-9.144,7.146-23.073,10.872-41.029,10.872     c-0.131,0-0.266,0-0.398-0.001c-2.882-0.009-5.102-0.58-5.655-1.457c-0.867-1.377-0.467-4.555,0.069-5.685     c1.188-2.423,3.002-4.685,4.919-7.081c4.024-5.024,9.033-11.277,9.033-20.61c0-9.334-5.008-15.587-9.034-20.612     c-1.918-2.395-3.729-4.656-4.918-7.079c-0.537-1.131-0.937-4.309-0.069-5.686c0.553-0.876,2.772-1.448,5.655-1.457     c0.133,0,0.265,0,0.398,0c17.955,0,31.885,3.725,41.029,10.87c-6.303,6.053-10.241,14.556-10.241,23.964     S226.701,189.003,233.005,195.056z M256.001,182.993c-6.561,0-11.9-5.338-11.9-11.899c0-6.563,5.339-11.903,11.9-11.903     c6.563,0,11.901,5.34,11.901,11.903C267.902,177.655,262.563,182.993,256.001,182.993z M326.075,204.469     c-0.552,0.877-2.771,1.449-5.653,1.457c-0.133,0.001-0.265,0.001-0.398,0.001c-17.955,0-31.885-3.726-41.03-10.872     c6.304-6.052,10.242-14.553,10.242-23.962c0-9.407-3.935-17.909-10.24-23.962c9.218-7.201,23.295-10.936,41.425-10.872     c2.881,0.01,5.101,0.581,5.653,1.457c0.867,1.377,0.468,4.555-0.068,5.686c-1.188,2.423-3.001,4.685-4.919,7.079     c-4.023,5.025-9.032,11.279-9.032,20.612c0,9.333,5.008,15.586,9.032,20.61c1.919,2.396,3.73,4.657,4.919,7.081     C326.544,199.916,326.942,203.092,326.075,204.469z"/>
		</g>
	</g>
</g>
<g>
</g>
<g>
</g>
<g>
</g>
<g>
</g>
<g>
</g>
<g>
</g>
<g>
</g>
<g>
</g>
<g>
</g>
<g>
</g>
<g>
</g>
<g>
</g>
<g>
</g>
<g>
</g>
<g>
</g>
</svg>
