<?xml version="1.0" encoding="iso-8859-1"?>
<!-- Generator: Adobe Illustrator 19.0.0, SVG Export Plug-In . SVG Version: 6.00 Build 0)  -->
<svg xmlns="http://www.w3.org/2000/svg" xmlns:xlink="http://www.w3.org/1999/xlink" version="1.1" id="Layer_1" x="0px" y="0px" viewBox="0 0 511.999 511.999" style="enable-background:new 0 0 511.999 511.999;" xml:space="preserve">
<g>
	<g>
		<g>
			<path d="M484.804,52.341l-0.494,0.002c-24.611,0.242-56.442,1.628-84.381,10.28c-2.5,0.774-4.923,1.601-7.281,2.468     C364.321,53.604,321.809,48.45,256.001,48.45c-65.809,0-108.325,5.154-136.649,16.642c-2.361-0.868-4.781-1.695-7.281-2.469     c-27.938-8.651-59.772-10.038-84.383-10.28l-0.494-0.002C0,52.341,0,76.108,0,83.917V288.3c0,0.058,0.011,0.112,0.013,0.17     c0.004,0.359,0.029,0.72,0.07,1.082c0.011,0.078,0.015,0.157,0.025,0.236c0.061,0.428,0.144,0.854,0.258,1.278     c0.009,0.036,0.023,0.07,0.033,0.107c0.102,0.362,0.225,0.72,0.367,1.075c0.05,0.126,0.107,0.247,0.16,0.371     c0.061,0.137,0.111,0.274,0.177,0.409c0.691,1.398,17.209,34.636,41.576,68.422c32.968,45.708,63.868,69.652,91.9,71.244     c39.6,22.456,72.804,30.856,121.421,30.856c27.125,0,49.447-2.621,70.762-8.829c0.417-0.097,0.827-0.212,1.225-0.356     c16.451-4.908,32.349-11.982,49.432-21.67c28.032-1.593,58.932-25.536,91.9-71.244c24.368-33.784,40.883-67.023,41.576-68.422     c0.067-0.134,0.116-0.272,0.177-0.409c0.054-0.124,0.11-0.245,0.16-0.371c0.144-0.355,0.269-0.714,0.369-1.075     c0.011-0.036,0.025-0.07,0.035-0.107c0.114-0.423,0.196-0.85,0.256-1.279c0.011-0.078,0.017-0.157,0.025-0.236     c0.044-0.361,0.067-0.722,0.073-1.083c0-0.057,0.011-0.111,0.011-0.169V83.917C511.999,76.108,511.999,52.341,484.804,52.341z      M21.334,83.917c0-8.046,1.377-9.573,1.384-9.579c0.008-0.006,0.95-0.662,4.475-0.662l0.286,0.001     c23.157,0.227,52.984,1.492,78.281,9.326c3.288,1.019,6.405,2.12,9.363,3.303c0.077,0.035,0.158,0.059,0.236,0.092     c21.31,8.581,34.048,21.505,38.819,39.313c7.117,26.562-3.08,52.113-31.173,78.114c-8.294,7.676-17.655,14.967-27.595,21.92     c-0.063,0.042-0.125,0.086-0.186,0.13c-21.208,14.813-45.054,28.087-66.922,40.256c-2.359,1.313-4.682,2.606-6.967,3.881V83.917     H21.334z M24.83,292.513c4.457-2.511,9.061-5.079,13.847-7.741c17.859-9.939,37.5-20.872,56.253-33.055     c3.06,10.893,5.846,20.254,8.39,28.799c11.155,37.463,17.586,59.073,22.683,128.997C87.493,397.204,44.146,328.831,24.83,292.513     z M364.176,415.669c-10.213,5.662-19.899,10.265-29.578,13.958c-0.085-19.242,1.329-40.686,2.323-53.271     c0.464-5.872-3.919-11.011-9.793-11.475c-5.871-0.465-11.011,3.92-11.476,9.794c-1.136,14.359-2.796,39.936-2.3,61.595     c-17.142,4.193-35.375,5.946-57.351,5.946c-43.961,0-72.946-7.014-108.176-26.546c-5.36-78.439-12.466-102.305-24.058-141.238     c-3.05-10.245-6.451-21.668-10.245-35.491c42.265-30.918,74.498-69.348,61.262-118.75c-0.029-0.108-0.063-0.213-0.092-0.321     c14.93-2.083,36.231-3.711,56.123-4.166c5.889-0.135,10.556-5.019,10.422-10.908c-0.135-5.89-5.061-10.523-10.909-10.421     c-23.566,0.539-48.473,2.616-64.53,5.274c-5.025-7.872-11.622-14.773-19.765-20.681c25.414-6.231,61.202-9.182,109.967-9.182     c48.763,0,84.553,2.952,109.966,9.181c-14.601,10.591-24.237,24.369-28.751,41.223c-13.236,49.401,18.995,87.83,61.26,118.747     c-3.796,13.828-7.196,25.256-10.246,35.503C376.639,313.373,369.535,337.235,364.176,415.669z M452.017,348.967     c-23.984,33.254-46.938,54.162-66.014,60.458c5.094-69.847,11.524-91.453,22.672-128.898c2.546-8.548,5.331-17.912,8.392-28.81     c18.755,12.183,38.396,23.117,56.257,33.057c4.765,2.652,9.353,5.208,13.793,7.71     C480.677,304.451,468.014,326.789,452.017,348.967z M490.666,270.012c-2.284-1.275-4.606-2.568-6.965-3.881     c-21.805-12.134-45.578-25.368-66.74-40.128c-0.087-0.064-0.177-0.125-0.269-0.187c-9.978-6.974-19.374-14.289-27.695-21.99     c-28.095-26-38.291-51.552-31.175-78.115c4.769-17.801,17.501-30.726,38.8-39.306c0.085-0.036,0.173-0.062,0.258-0.1     c2.956-1.182,6.071-2.284,9.358-3.3c25.298-7.835,55.123-9.101,78.28-9.327l0.286-0.001c3.528,0,4.469,0.656,4.469,0.656     c0.015,0.015,1.392,1.538,1.392,9.586V270.012z"/>
			<path d="M91.126,176.418c17.645,0,32-14.356,32-32.002c0-17.646-14.355-32.002-32-32.002c-17.647,0-32.002,14.356-32.002,32.002     C59.124,162.062,73.479,176.418,91.126,176.418z M91.126,133.749c5.88,0,10.665,4.785,10.665,10.667     c0,5.882-4.785,10.667-10.665,10.667c-5.882,0-10.667-4.785-10.667-10.667C80.459,138.535,85.244,133.749,91.126,133.749z"/>
			<path d="M421.416,112.415c-17.647,0-32.002,14.356-32.002,32.002c0,17.646,14.355,32.002,32.002,32.002     s32.002-14.356,32.002-32.002C453.418,126.771,439.063,112.415,421.416,112.415z M421.416,155.084     c-5.882,0-10.667-4.785-10.667-10.667c0-5.882,4.785-10.667,10.667-10.667s10.667,4.785,10.667,10.667     C432.083,150.299,427.298,155.084,421.416,155.084z"/>
			<path d="M262.483,94.779l-0.265-0.015c-5.88-0.365-10.923,4.091-11.303,9.96c-0.38,5.88,4.079,10.953,9.959,11.333     c0.05,0.003,0.183,0.01,0.265,0.014c0.214,0.013,0.427,0.019,0.64,0.019c5.565-0.001,10.254-4.318,10.634-9.954     C272.807,100.259,268.363,95.173,262.483,94.779z"/>
			<path d="M330.748,334.293c-5.838-0.769-11.203,3.331-11.977,9.172l-0.131,1.013c-0.741,5.844,3.395,11.182,9.24,11.924     c0.457,0.058,0.909,0.086,1.356,0.086c5.292,0,9.886-3.937,10.569-9.326l0.115-0.892     C340.695,340.43,336.588,335.068,330.748,334.293z"/>
		</g>
	</g>
</g>
<g>
</g>
<g>
</g>
<g>
</g>
<g>
</g>
<g>
</g>
<g>
</g>
<g>
</g>
<g>
</g>
<g>
</g>
<g>
</g>
<g>
</g>
<g>
</g>
<g>
</g>
<g>
</g>
<g>
</g>
</svg>
