<?xml version="1.0" encoding="iso-8859-1"?>
<!-- Generator: Adobe Illustrator 19.0.0, SVG Export Plug-In . SVG Version: 6.00 Build 0)  -->
<svg xmlns="http://www.w3.org/2000/svg" xmlns:xlink="http://www.w3.org/1999/xlink" version="1.1" id="Layer_1" x="0px" y="0px" viewBox="0 0 512.001 512.001" style="enable-background:new 0 0 512.001 512.001;" xml:space="preserve">
<g>
	<g>
		<g>
			<path d="M46.406,78.651c1.161,0,2.339-0.19,3.495-0.588c0.151-0.052,0.303-0.106,0.451-0.161c5.517-2.065,8.316-8.212,6.25-13.73     c-2.063-5.514-8.205-8.315-13.719-6.254l0.059-0.022c-0.021,0.006-0.133,0.047-0.155,0.053     c-5.544,1.952-8.419,8.006-6.485,13.556C37.835,75.903,41.985,78.651,46.406,78.651z"/>
			<path d="M76.619,68.866c1.004,0,2.027-0.143,3.04-0.444c16.936-5.027,34.222-9.373,51.376-12.916     c5.769-1.192,9.481-6.834,8.289-12.604c-1.192-5.769-6.833-9.479-12.604-8.289c-17.743,3.664-35.619,8.157-53.132,13.356     c-5.648,1.677-8.868,7.614-7.191,13.262C67.772,65.866,72.018,68.866,76.619,68.866z"/>
			<path d="M493.064,112.991c-37.49-16.069-76.658-28.381-116.415-36.595c-27.888-5.76-56.148-9.525-84.392-11.269     c4.059-6.528,6.411-14.223,6.411-22.46C298.668,19.14,279.528,0,256.001,0c-23.529,0-42.669,19.14-42.669,42.668     c0,8.236,2.353,15.932,6.413,22.459c-28.247,1.745-56.508,5.509-84.396,11.269c-39.757,8.214-78.924,20.526-116.38,36.581     C3.79,119.424-3.831,137.821,1.98,153.989c4.434,12.324,15.806,20.605,28.296,20.605c3.88,0,7.679-0.779,11.33-2.329     c9.22-3.951,18.541-7.642,27.937-11.082v141.544l-14.791,21.881l-28.424,8.144c-3.407,0.977-6.108,3.582-7.206,6.953     c-1.097,3.371-0.448,7.066,1.731,9.862l18.248,23.406l-1.038,29.547c-0.125,3.543,1.519,6.914,4.384,9.001     c2.867,2.085,6.581,2.61,9.914,1.402l27.899-10.121l27.781,10.117c1.187,0.432,2.421,0.644,3.65,0.644     c2.22,0,4.419-0.693,6.265-2.033c2.868-2.082,4.516-5.453,4.396-8.996l-1.005-29.661l18.208-23.294     c2.184-2.793,2.836-6.488,1.744-9.86c-1.093-3.372-3.791-5.98-7.197-6.961l-28.519-8.21l-14.708-21.811V153.864     c18.468-5.919,37.179-10.856,55.996-14.742c32.268-6.665,65.339-10.353,98.46-11.006v212.968     c-7.402-3.529-14.113-4.529-19.328-4.529c-15.523,0-30.098,8.947-38.037,23.35c-8.553,15.513-7.915,33.873,1.706,49.11     c10.817,17.134,28.154,29.998,60.589,50.696c1.749,1.117,3.744,1.675,5.739,1.675c1.994,0,3.987-0.558,5.738-1.675     c32.433-20.699,49.771-33.563,60.586-50.695c9.622-15.239,10.26-33.599,1.708-49.112c-7.939-14.402-22.513-23.349-38.037-23.349     c-5.215,0-11.926,1-19.326,4.528V128.115c33.119,0.654,66.187,4.342,98.456,11.006c18.814,3.886,37.522,8.822,55.993,14.742     v142.501c-12.394,2.414-23.325,8.95-31.318,18.117l-11.064-6.388c-5.102-2.944-11.626-1.197-14.571,3.904     c-2.946,5.102-1.197,11.626,3.904,14.571l11.04,6.374c-1.956,5.678-3.034,11.762-3.034,18.096     c0,30.719,24.992,55.713,55.712,55.713c16.738,0,31.765-7.431,41.985-19.154l11.061,6.385c1.681,0.97,3.515,1.43,5.324,1.43     c3.687,0,7.272-1.913,9.247-5.335c2.946-5.102,1.198-11.626-3.904-14.571l-11.035-6.372c1.955-5.678,3.034-11.763,3.034-18.097     c0-27.07-19.412-49.683-45.045-54.675v-135.18c9.409,3.444,18.742,7.138,27.977,11.096c3.617,1.536,7.417,2.314,11.294,2.314     c12.492-0.001,23.864-8.282,28.295-20.607C515.832,137.822,508.212,119.425,493.064,112.991z M256.001,21.334     c11.763,0,21.332,9.571,21.332,21.333c0,11.75-9.55,21.31-21.297,21.33c-0.012,0-0.025,0-0.035,0c-0.013,0-0.025,0-0.037,0     c-11.747-0.02-21.297-9.58-21.297-21.33C234.667,30.905,244.238,21.334,256.001,21.334z M95.96,343.977l17.06,4.91     l-10.866,13.899c-1.542,1.975-2.341,4.427-2.257,6.932l0.602,17.746l-16.576-6.037c-2.354-0.857-4.934-0.86-7.288-0.004     l-16.692,6.055l0.619-17.632c0.089-2.504-0.707-4.958-2.248-6.934l-10.917-14.004l16.96-4.86c2.408-0.69,4.496-2.205,5.899-4.281     l9.944-14.71l9.865,14.63C91.465,341.767,93.552,343.284,95.96,343.977z M285.995,357.888c7.75,0,15.167,4.719,19.354,12.314     c4.743,8.603,4.345,18.855-1.064,27.422c-8.076,12.793-22.264,23.611-48.284,40.417c-26.023-16.806-40.21-27.623-48.289-40.418     c-5.407-8.566-5.804-18.816-1.06-27.42c4.187-7.596,11.603-12.315,19.354-12.315c7.353,0,15.039,4.038,22.226,11.675     c0.035,0.037,0.075,0.07,0.111,0.108c0.142,0.145,0.289,0.283,0.438,0.42c0.111,0.102,0.221,0.208,0.337,0.305     c0.162,0.138,0.334,0.266,0.505,0.394c0.111,0.081,0.217,0.167,0.329,0.244c0.202,0.14,0.414,0.267,0.624,0.391     c0.09,0.052,0.175,0.111,0.265,0.16c0.265,0.147,0.54,0.279,0.817,0.403c0.044,0.019,0.083,0.043,0.127,0.061     c1.294,0.558,2.719,0.87,4.219,0.87c1.499,0,2.925-0.313,4.22-0.87c0.038-0.017,0.076-0.038,0.115-0.055     c0.282-0.126,0.559-0.26,0.827-0.409c0.087-0.048,0.171-0.106,0.257-0.157c0.213-0.126,0.427-0.254,0.63-0.395     c0.112-0.078,0.219-0.163,0.328-0.244c0.171-0.128,0.342-0.256,0.507-0.394c0.114-0.098,0.224-0.203,0.335-0.305     c0.148-0.138,0.297-0.274,0.437-0.42c0.036-0.037,0.077-0.069,0.112-0.108C270.957,361.925,278.641,357.888,285.995,357.888z      M431.786,385.417c-18.956,0-34.377-15.422-34.377-34.378c0-2.434,0.258-4.809,0.741-7.101l56.586,32.669     C448.646,382.08,440.599,385.417,431.786,385.417z M466.163,351.04c0,2.434-0.258,4.81-0.742,7.102l-56.584-32.669     c6.09-5.472,14.136-8.809,22.95-8.809C450.741,316.662,466.163,332.084,466.163,351.04z M489.944,146.768     c-1.417,3.943-4.644,6.491-8.219,6.491c-0.998,0-1.992-0.208-2.923-0.603c-14.202-6.088-28.637-11.587-43.23-16.5     c-0.278-0.107-0.561-0.203-0.851-0.286c-21.483-7.195-43.31-13.106-65.278-17.644c-37.15-7.673-75.316-11.563-113.44-11.563     c-38.125,0-76.292,3.89-113.443,11.563c-21.973,4.539-43.804,10.451-65.279,17.644c-0.291,0.083-0.576,0.18-0.857,0.287     c-14.584,4.91-29.003,10.405-43.187,16.484c-0.964,0.41-1.961,0.618-2.959,0.618c-3.575,0-6.802-2.549-8.22-6.49     c-2.016-5.608,0.39-12.09,5.286-14.169c36.175-15.506,73.965-27.386,112.323-35.31c38.394-7.931,77.512-11.954,116.269-11.958     c0.022,0,0.044,0.002,0.067,0.002c0.021,0,0.044-0.002,0.065-0.002c38.756,0.004,77.873,4.027,116.268,11.958     c38.357,7.924,76.149,19.804,112.358,35.324C489.555,134.679,491.96,141.161,489.944,146.768z"/>
			<path d="M325.841,438.445c-4.193,4.138-4.238,10.891-0.1,15.086c2.087,2.115,4.839,3.176,7.593,3.176     c2.705,0,5.414-1.024,7.491-3.074l0.269-0.27c4.111-4.22,4.038-10.987-0.182-15.098     C336.69,434.151,329.952,434.225,325.841,438.445z"/>
			<path d="M303.366,457.512c-9.759,7.161-20.097,13.76-30.153,20.179l-22.952,14.648c-4.966,3.17-6.422,9.765-3.252,14.732     c2.034,3.188,5.481,4.93,9.002,4.93c1.964,0,3.951-0.542,5.728-1.677l23.012-14.688c10.284-6.565,20.917-13.353,31.236-20.924     c4.749-3.486,5.774-10.162,2.29-14.912C314.792,455.051,308.114,454.027,303.366,457.512z"/>
		</g>
	</g>
</g>
<g>
</g>
<g>
</g>
<g>
</g>
<g>
</g>
<g>
</g>
<g>
</g>
<g>
</g>
<g>
</g>
<g>
</g>
<g>
</g>
<g>
</g>
<g>
</g>
<g>
</g>
<g>
</g>
<g>
</g>
</svg>
