<?xml version="1.0" encoding="iso-8859-1"?>
<!-- Generator: Adobe Illustrator 19.0.0, SVG Export Plug-In . SVG Version: 6.00 Build 0)  -->
<svg xmlns="http://www.w3.org/2000/svg" xmlns:xlink="http://www.w3.org/1999/xlink" version="1.1" id="Layer_1" x="0px" y="0px" viewBox="0 0 511.999 511.999" style="enable-background:new 0 0 511.999 511.999;" xml:space="preserve">
<g>
	<g>
		<g>
			<path d="M465.435,230.658h-49.434V123.685c0-5.892-4.777-10.667-10.667-10.667h-10.665v-11.361     c19.253-3.455,25.526-15.656,27.558-23.398c6.902-26.296-18.223-65.928-37.661-76.883c-4.785-2.699-10.84-1.32-13.984,3.187     c-0.361,0.514-8.88,12.781-16.037,28.09c-10.552,22.57-12.716,40.284-6.435,52.649c3.316,6.531,10.353,14.195,25.225,16.56     v11.154h-10.67c-5.892,0-10.667,4.776-10.667,10.667v106.974h-63.999V123.685c0-5.892-4.777-10.667-10.667-10.667h-10.663     v-11.361C285.92,98.202,292.193,86,294.226,78.26c6.902-26.296-18.223-65.928-37.661-76.884     c-4.787-2.699-10.84-1.32-13.984,3.187c-0.361,0.514-8.88,12.781-16.037,28.09c-10.552,22.57-12.716,40.284-6.434,52.649     c3.316,6.531,10.353,14.195,25.224,16.56v11.154h-10.669c-5.892,0-10.667,4.776-10.667,10.667v106.974h-63.999V123.685     c0-5.892-4.777-10.667-10.667-10.667h-10.663v-11.361C157.92,98.202,164.193,86,166.225,78.26     c6.902-26.296-18.223-65.928-37.661-76.884c-4.786-2.699-10.84-1.32-13.984,3.187c-0.361,0.514-8.88,12.781-16.037,28.09     c-10.552,22.57-12.716,40.284-6.434,52.649c3.316,6.531,10.353,14.195,25.224,16.56v11.154h-10.669     c-5.891,0-10.667,4.776-10.667,10.667v106.974H46.565c-25.675,0-46.564,20.886-46.564,46.56v56.946     c0,17.689,11.904,32.651,28.121,37.297v31.641l-0.002,79.965c0,15.953,14.197,28.932,31.651,28.932h392.456     c17.451,0,31.65-12.979,31.65-28.932v-65.941l0.002-45.667c16.216-4.646,28.118-19.607,28.118-37.297v-56.946     C511.997,251.545,491.11,230.658,465.435,230.658z M367.132,75.646c-4.793-9.423,4.642-32.05,14.77-49.206     c11.223,11.852,22.928,34.063,19.689,46.404c-0.546,2.084-2.21,8.425-18.22,8.425c-0.401-0.02-0.87-0.004-1.313-0.014     C373.959,81.08,368.937,79.194,367.132,75.646z M373.332,134.352h21.334v96.306h-21.334V134.352z M239.131,75.646     c-4.793-9.423,4.641-32.05,14.77-49.206c11.223,11.853,22.928,34.063,19.689,46.404c-0.546,2.084-2.21,8.424-18.22,8.424     c-0.002,0-0.004,0-0.006,0c-0.427,0-0.867-0.004-1.307-0.014C245.958,81.08,240.936,79.194,239.131,75.646z M245.331,134.352     h21.332v96.306h-21.332V134.352z M111.13,75.646c-4.793-9.423,4.641-32.05,14.77-49.206     c11.223,11.853,22.928,34.063,19.689,46.404c-0.546,2.084-2.21,8.424-18.22,8.424c-0.422-0.02-0.87-0.004-1.312-0.014     C117.958,81.08,112.936,79.194,111.13,75.646z M117.331,134.352h21.332v96.306h-21.332     C117.331,230.658,117.331,134.352,117.331,134.352z M462.542,483.067c0.001,4.048-4.82,7.598-10.314,7.598H59.771     c-5.496,0-10.316-3.55-10.316-7.596l0.001-45.341c5.25,2.658,11.177,4.166,17.455,4.166c21.387,0,38.787-17.401,38.787-38.789     v-48.949h35.713c5.892,0,10.667-4.776,10.667-10.667s-4.776-10.667-10.667-10.667h-35.712v-5.12     c0-9.459,7.694-17.154,17.153-17.154H242.35c9.459,0,17.154,7.695,17.154,17.154v25.178c0,18.835,5.883,34.745,17.011,46.01     c10.071,10.195,23.709,15.809,38.401,15.809c14.655,0,28.994-5.836,39.335-16.013c8.092-7.963,17.741-22.375,17.741-45.807V327.7     c0-9.459,7.696-17.154,17.156-17.154c9.458,0,17.152,7.695,17.152,17.154v89.427c0,21.389,17.401,38.789,38.789,38.789     c6.276,0,12.202-1.508,17.453-4.166V483.067z M490.664,334.165h-0.001c0,9.624-7.83,17.454-17.453,17.454     c-5.89,0-10.667,4.776-10.667,10.667v54.841c0,9.625-7.83,17.455-17.453,17.455c-9.625,0-17.455-7.83-17.455-17.455v-89.427     c0-21.222-17.266-38.488-38.488-38.488s-38.488,17.266-38.488,38.488v25.178c0,27.816-18.527,40.485-35.742,40.485     c-16.961,0-34.078-12.518-34.078-40.485v-25.178c0-21.222-17.265-38.488-38.488-38.488H122.852     c-21.223,0-38.487,17.266-38.487,38.488v75.404c0,9.625-7.83,17.455-17.453,17.455c-9.624,0-17.454-7.83-17.454-17.456     l-0.002-40.818c-0.001-5.89-4.777-10.666-10.667-10.666c-9.623,0-17.452-7.83-17.452-17.454v-56.946     c0-13.91,11.318-25.226,25.229-25.226h60.098h42.667h85.334h42.667h85.334h42.669h60.101c13.911,0,25.228,11.316,25.228,25.226     V334.165z"/>
			<path d="M174.592,332.821h-0.762c-5.891,0-10.667,4.776-10.667,10.667s4.777,10.667,10.667,10.667h0.762     c5.892,0,10.667-4.776,10.667-10.667C185.26,337.597,180.484,332.821,174.592,332.821z"/>
			<path d="M299.553,447.999h-0.765c-5.89,0-10.667,4.776-10.667,10.667s4.777,10.667,10.667,10.667h0.765     c5.89,0,10.667-4.776,10.667-10.667S305.444,447.999,299.553,447.999z"/>
			<path d="M378.35,447.999h-46.381c-5.89,0-10.667,4.776-10.667,10.667s4.777,10.667,10.667,10.667h46.381     c5.89,0,10.667-4.776,10.667-10.667S384.241,447.999,378.35,447.999z"/>
		</g>
	</g>
</g>
<g>
</g>
<g>
</g>
<g>
</g>
<g>
</g>
<g>
</g>
<g>
</g>
<g>
</g>
<g>
</g>
<g>
</g>
<g>
</g>
<g>
</g>
<g>
</g>
<g>
</g>
<g>
</g>
<g>
</g>
</svg>
