<?xml version="1.0" encoding="iso-8859-1"?>
<!-- Generator: Adobe Illustrator 19.0.0, SVG Export Plug-In . SVG Version: 6.00 Build 0)  -->
<svg xmlns="http://www.w3.org/2000/svg" xmlns:xlink="http://www.w3.org/1999/xlink" version="1.1" id="Layer_1" x="0px" y="0px" viewBox="0 0 511.999 511.999" style="enable-background:new 0 0 511.999 511.999;" xml:space="preserve">
<g>
	<g>
		<g>
			<path d="M387.989,209.143c-2.025-2.394-5.004-3.775-8.14-3.775h-0.741c6.853-25.188,5.073-45.711-5.338-61.144     c-10.513-15.584-27.11-21.623-38-23.958c0.289-42.49-24.708-56.733-45.078-68.341c-17.859-10.179-31.967-18.22-34.431-42.342     c-0.376-3.671-2.621-6.887-5.935-8.504c-3.316-1.618-7.234-1.406-10.357,0.558c-33.402,21.007-37.106,51.183-36.642,66.079     c-16.376,8.191-26.568,22.383-29.66,41.48c-1.261,7.787-1.062,15.064-0.527,20.484c-34.472,16.549-42.169,56.851-43.856,76.094     c-2.035,0.569-3.882,1.721-5.273,3.365c-2.027,2.395-2.898,5.559-2.381,8.653l16.176,96.682     c0.861,5.141,5.311,8.907,10.521,8.907h9.692l42.121,180.375c1.128,4.827,5.432,8.242,10.388,8.242h90.945     c4.956,0,9.261-3.415,10.388-8.242l42.121-180.375h9.692c5.211,0,9.661-3.767,10.521-8.907l16.176-96.682     C390.886,214.703,390.016,211.538,387.989,209.143z M179.836,150.294c8.578,12.496,24.139,18.126,40.123,18.126     c6.105,0,12.269-0.819,18.128-2.389c5.692-1.524,9.069-7.374,7.544-13.064c-1.525-5.69-7.375-9.069-13.065-7.543     c-15.251,4.083-33.458,1.325-37.281-11.808c-0.306-1.358-2.238-10.636-0.558-21.005c2.293-14.166,9.974-23.34,23.472-28.045     c5.065-1.764,8.046-6.943,6.944-12.192c-0.217-1.115-4.309-23.625,13.924-42.757c8.204,22.119,26.112,32.324,41.063,40.846     c20.812,11.861,37.25,21.23,33.881,58.03c-0.269,2.937,0.689,5.853,2.648,8.058c1.958,2.204,4.742,3.5,7.69,3.579     c0.212,0.005,21.588,0.988,31.735,16.028c7.471,11.075,7.705,27.621,0.763,49.212H150.774     C152.413,190.208,158.361,162.604,179.836,150.294z M327.494,342.99h-30.336c-5.892,0-10.667,4.776-10.667,10.667     s4.776,10.667,10.667,10.667h25.353l-29.504,126.343h-74.019l-39.062-167.282h152.145L327.494,342.99z M354.641,302.05H157.358     l-12.607-75.347h219.623c0.025,0,0.048,0.003,0.07,0.003c0.027,0,0.054-0.003,0.081-0.003h2.723L354.641,302.05z"/>
			<path d="M262.534,135.346l-0.837,0.31c-5.528,2.042-8.352,8.175-6.311,13.702c1.592,4.309,5.67,6.975,10.007,6.975     c1.227,0,2.477-0.213,3.696-0.665l0.873-0.323c5.521-2.05,8.335-8.19,6.286-13.713     C274.197,136.109,268.055,133.295,262.534,135.346z"/>
			<path d="M266.259,364.329h0.256c5.892,0,10.667-4.776,10.667-10.667s-4.776-10.667-10.667-10.667h-0.256     c-5.889,0-10.667,4.776-10.667,10.667S260.369,364.329,266.259,364.329z"/>
		</g>
	</g>
</g>
<g>
</g>
<g>
</g>
<g>
</g>
<g>
</g>
<g>
</g>
<g>
</g>
<g>
</g>
<g>
</g>
<g>
</g>
<g>
</g>
<g>
</g>
<g>
</g>
<g>
</g>
<g>
</g>
<g>
</g>
</svg>
