<?xml version="1.0" encoding="iso-8859-1"?>
<!-- Generator: Adobe Illustrator 19.0.0, SVG Export Plug-In . SVG Version: 6.00 Build 0)  -->
<svg xmlns="http://www.w3.org/2000/svg" xmlns:xlink="http://www.w3.org/1999/xlink" version="1.1" id="Layer_1" x="0px" y="0px" viewBox="0 0 511.997 511.997" style="enable-background:new 0 0 511.997 511.997;" xml:space="preserve">
<g>
	<g>
		<g>
			<path d="M480,218.044H202.778c13.859-13.563,22.482-32.455,22.482-53.332c0-41.144-33.451-74.62-74.586-74.664     c-0.029,0-0.057-0.004-0.083-0.004c-0.516,0-1.029,0.015-1.537,0.041c-40.463,0.823-73.129,33.972-73.129,74.628     c0,20.877,8.621,39.769,22.48,53.332H32c-17.645,0-32,14.355-32,32v21.335c0,5.892,4.777,10.667,10.667,10.667h10.667v29.333     c0,52.528,31.123,99.995,78.523,121.479c-4.248,13.387-0.75,23.066,2.204,28.18c5.325,9.223,15.397,14.952,26.289,14.951     c0,0,0.002,0,0.004,0c11.948-0.001,22.995-6.781,29.549-18.134l7.588-13.142h181.016l7.585,13.141     c6.556,11.356,17.605,18.136,29.554,18.135c10.892-0.001,20.968-5.732,26.293-14.957c2.953-5.114,6.451-14.79,2.202-28.175     c47.403-21.485,78.523-68.951,78.523-121.479v-29.333h10.665c5.892,0,10.667-4.776,10.667-10.667v-21.335     C512,232.399,497.645,218.044,480,218.044z M97.26,164.712c0-18.677,9.657-35.132,24.235-44.661     c0.47,15.647,13.338,28.232,29.097,28.232c5.102,0,10.136-1.348,14.559-3.9c5.102-2.944,6.853-9.468,3.906-14.571     c-2.944-5.102-9.467-6.854-14.569-3.909c-1.183,0.684-2.531,1.044-3.896,1.044c-4.294,0-7.786-3.492-7.786-7.785     c0-4.265,3.448-7.736,7.703-7.781c0.027,0,0.054-0.002,0.083-0.002c29.408,0,53.334,23.925,53.334,53.332     s-23.927,53.332-53.334,53.332S97.26,194.119,97.26,164.712z M490.665,260.711H480h-79.327c-5.89,0-10.667,4.776-10.667,10.667     c0,5.892,4.777,10.667,10.667,10.667h68.66v29.333c0,47.349-30.128,89.809-74.967,105.655c-2.99,1.057-5.355,3.389-6.453,6.363     c-1.098,2.975-0.817,6.283,0.769,9.029c4.175,7.23,5.19,13.769,2.781,17.94c-1.548,2.685-4.471,4.288-7.815,4.288     c-2.527,0-7.325-0.97-11.078-7.468l-10.665-18.475c-1.906-3.3-5.427-5.334-9.238-5.334H159.334c-3.81,0-7.332,2.033-9.238,5.333     l-10.669,18.477c-3.748,6.496-8.549,7.467-11.076,7.467c-3.344,0-6.265-1.601-7.813-4.285     c-2.409-4.171-1.396-10.711,2.781-17.943c1.585-2.746,1.867-6.055,0.769-9.029c-1.098-2.975-3.463-5.306-6.453-6.363     c-44.84-15.845-74.966-58.305-74.966-105.655v-40c0-5.891-4.776-10.667-10.667-10.667H21.335v-10.667     c0-5.881,4.785-10.665,10.667-10.665H480c5.882,0,10.665,4.784,10.665,10.665V260.711z"/>
			<path d="M108.345,362.788c-14.624-13.215-23.011-31.953-23.011-51.41c0-5.892-4.776-10.667-10.667-10.667     c-5.889,0-10.667,4.776-10.667,10.667c0,25.48,10.951,49.988,30.043,67.24c2.042,1.843,4.599,2.752,7.148,2.752     c2.912,0,5.813-1.185,7.919-3.515C113.058,373.483,112.717,366.738,108.345,362.788z"/>
			<path d="M131.887,376.82c-0.212-0.077-0.459-0.159-0.656-0.219c-5.646-1.694-11.59,1.51-13.282,7.152     c-1.648,5.492,1.34,11.27,6.702,13.137c0.107,0.038,0.219,0.077,0.308,0.107c1.108,0.365,2.234,0.539,3.34,0.539     c4.479,0,8.65-2.845,10.13-7.332C140.246,384.693,137.322,378.759,131.887,376.82z"/>
			<path d="M370.031,260.715h-0.256c-5.892,0-10.667,4.776-10.667,10.667c0,5.892,4.776,10.667,10.667,10.667h0.256     c5.889,0,10.667-4.776,10.667-10.667C380.699,265.491,375.921,260.715,370.031,260.715z"/>
			<path d="M130.591,186.044c5.878,0,10.669-4.792,10.669-10.666c0-5.877-4.792-10.668-10.669-10.668     c-5.873,0-10.665,4.792-10.665,10.668C119.926,181.252,124.717,186.044,130.591,186.044z"/>
			<path d="M170.591,186.044c5.878,0,10.669-4.792,10.669-10.666c0-5.877-4.792-10.668-10.669-10.668     c-5.876,0-10.665,4.792-10.665,10.668C159.926,181.252,164.715,186.044,170.591,186.044z"/>
			<path d="M309.757,100.01c17.647,0,32.002-14.356,32.002-32.002c0-17.645-14.355-32-32.002-32c-17.645,0-32.002,14.355-32.002,32     C277.755,85.654,292.112,100.01,309.757,100.01z M309.757,57.343c5.882,0,10.667,4.784,10.667,10.665     c0,5.882-4.785,10.667-10.667,10.667c-5.882,0-10.667-4.785-10.667-10.667C299.09,62.127,303.875,57.343,309.757,57.343z"/>
			<path d="M417.259,163.176c23.527,0,42.667-19.14,42.667-42.668c0-23.527-19.14-42.666-42.667-42.666     c-23.527,0-42.665,19.139-42.665,42.666C374.594,144.035,393.732,163.176,417.259,163.176z M417.259,99.176     c11.763,0,21.332,9.57,21.332,21.331c0,11.763-9.57,21.333-21.332,21.333c-11.761,0-21.33-9.571-21.33-21.333     C395.928,108.746,405.498,99.176,417.259,99.176z"/>
			<path d="M310.19,129.843c-17.645,0-32.002,14.356-32.002,32.002c0,17.645,14.357,32,32.002,32c17.647,0,32.002-14.355,32.002-32     C342.192,144.199,327.837,129.843,310.19,129.843z M310.19,172.509c-5.882,0-10.667-4.784-10.667-10.665     c0-5.882,4.785-10.667,10.667-10.667s10.667,4.785,10.667,10.667C320.857,167.726,316.072,172.509,310.19,172.509z"/>
		</g>
	</g>
</g>
<g>
</g>
<g>
</g>
<g>
</g>
<g>
</g>
<g>
</g>
<g>
</g>
<g>
</g>
<g>
</g>
<g>
</g>
<g>
</g>
<g>
</g>
<g>
</g>
<g>
</g>
<g>
</g>
<g>
</g>
</svg>
