<?xml version="1.0" encoding="iso-8859-1"?>
<!-- Generator: Adobe Illustrator 19.0.0, SVG Export Plug-In . SVG Version: 6.00 Build 0)  -->
<svg xmlns="http://www.w3.org/2000/svg" xmlns:xlink="http://www.w3.org/1999/xlink" version="1.1" id="Layer_1" x="0px" y="0px" viewBox="0 0 512.001 512.001" style="enable-background:new 0 0 512.001 512.001;" xml:space="preserve">
<g>
	<g>
		<g>
			<path d="M404.945,47.913c-0.756-0.723-1.62-1.336-2.569-1.813C362.224,18.015,313.686,1.142,261.331,0.067     c-0.212-0.007-0.427-0.014-0.64-0.009C259.13,0.031,257.569,0,256.002,0C185.368,0,121.325,28.755,74.962,75.173     c-0.873,0.656-1.637,1.441-2.273,2.329c-31.774,32.624-54.943,73.662-65.793,119.421c-0.164,0.521-0.299,1.05-0.381,1.587     c-4.258,18.486-6.512,37.73-6.512,57.491c0,141.16,114.84,256,255.999,256c10.149,0,20.156-0.612,30-1.768     c0.273-0.021,0.546-0.051,0.817-0.093c52.712-6.353,100.539-28.788,138.427-62.241c0.916-0.59,1.746-1.322,2.452-2.178     c51.746-46.876,84.301-114.567,84.301-189.721C511.998,170.358,469.721,94.41,404.945,47.913z M265.445,21.54     c32.554,1.296,63.423,9.245,91.279,22.538c-47.474,2.54-89.76,17.858-127.944,46.294     C234.606,69.085,245.408,43.531,265.445,21.54z M237.601,22.053c-19.142,26.536-28.364,55.253-32.808,76.991     c-29.562-17.871-68.724-23.679-96.299-25.406C144.354,44.575,188.911,25.847,237.601,22.053z M86.091,94.304     c28.789-0.192,62.818,3.755,89.841,14.353c-64.889,6.543-106.081,32.75-136.983,58.191     C50.113,139.762,66.192,115.203,86.091,94.304z M21.337,256c0-17.233,1.886-34.032,5.427-50.217     c1.37-1.22,2.748-2.45,4.147-3.702c33.54-29.995,74.469-66.604,153.043-72.745c-7.024,8.812-13.871,19.686-19.995,31.969     c-10.484,21.023-23.537,55.31-26.186,99.261c-2.672,44.321,5.995,86.691,25.757,125.929     c19.579,38.876,49.813,73.805,90.059,104.14C125.303,489.333,21.337,384.588,21.337,256z M327.135,446.072     c1.748,4.015,5.67,6.411,9.785,6.411c1.422,0,2.868-0.286,4.253-0.89c30.741-13.386,57.183-33.461,77.932-58.078     c-1.742,13.489-4.665,26.614-8.794,39.126c-33.769,29.538-76.051,49.563-122.631,55.877     c-113.003-73.995-132.391-163.957-128.611-226.67c4.177-69.306,37.56-121.803,56.064-133.304     c84.339,2.46,133.97,48.526,160.827,86.984c27.808,39.822,43.366,89.926,44.959,138.788     c-20.156,33.806-50.631,61.328-88.263,77.716C327.255,434.385,324.783,440.671,327.135,446.072z M442.476,359.64     c17.271-31.072,26.856-66.58,26.856-103.64c0-5.891-4.776-10.667-10.667-10.667c-5.89,0-10.667,4.776-10.667,10.667     c0,20.586-3.29,40.637-9.459,59.549c-6.87-41.024-22.383-79.723-45.088-112.234c-20.181-28.899-45.159-51.843-74.239-68.195     c-24.376-13.706-51.123-22.417-79.78-26.055c44.519-33.812,95.202-47.93,154.113-43.071     c58.804,42.685,97.12,111.95,97.12,190.006c0,55.207-19.174,106.014-51.197,146.137     C441.607,388.339,442.624,374.115,442.476,359.64z"/>
			<path d="M306.156,441.331l-0.478,0.13c-5.688,1.533-9.015,7.375-7.482,13.063c1.281,4.758,5.614,7.884,10.326,7.884     c0.922,0,1.858-0.119,2.788-0.37l0.604-0.165c5.672-1.59,8.983-7.478,7.392-13.151     C317.716,443.05,311.831,439.741,306.156,441.331z"/>
		</g>
	</g>
</g>
<g>
</g>
<g>
</g>
<g>
</g>
<g>
</g>
<g>
</g>
<g>
</g>
<g>
</g>
<g>
</g>
<g>
</g>
<g>
</g>
<g>
</g>
<g>
</g>
<g>
</g>
<g>
</g>
<g>
</g>
</svg>
