<?xml version="1.0" encoding="iso-8859-1"?>
<!-- Generator: Adobe Illustrator 19.0.0, SVG Export Plug-In . SVG Version: 6.00 Build 0)  -->
<svg xmlns="http://www.w3.org/2000/svg" xmlns:xlink="http://www.w3.org/1999/xlink" version="1.1" id="Layer_1" x="0px" y="0px" viewBox="0 0 512 512" style="enable-background:new 0 0 512 512;" xml:space="preserve">
<g>
	<g>
		<g>
			<path d="M379.06,167.871c-1.977-5.551-8.078-8.45-13.626-6.473c-5.55,1.976-8.449,8.076-6.472,13.626l0.084,0.239     c1.554,4.368,5.664,7.094,10.05,7.094c1.187,0,2.395-0.201,3.577-0.621c5.55-1.976,8.448-8.076,6.472-13.626L379.06,167.871z"/>
			<path d="M485.026,286.459L387.405,26.778c-0.05-0.134-0.105-0.269-0.16-0.402C377.536,3.426,362.675,0,354.681,0     c-5.486,0-9.689,1.567-11.441,2.348L147.795,75.72c-28.609,9.866-28.86,30.059-28.57,34.368h-0.003l2.082,33.586     c0.001,0.03,0.003,0.061,0.005,0.091l5.185,83.655c-26.593,15.547-51.654,30.38-70.367,50.631     c-0.165,0.163-0.324,0.334-0.478,0.51c-0.169,0.183-0.346,0.359-0.512,0.544c-21.822,24.129-31.987,52.738-31.987,90.031     C23.151,447.911,87.24,512,166.018,512c11.543,0,24.775-2.828,39.159-7.792c0.73-0.172,1.429-0.416,2.09-0.728     c66.544-23.737,156.986-92.058,220.852-140.305c18.003-13.601,33.568-25.358,44.709-33.106     C492.239,317.96,490.855,297.72,485.026,286.459z M154.858,95.852c0.098-0.034,0.196-0.069,0.293-0.106l195.953-73.563     c0.529-0.198,0.569-0.179,0.971-0.41c0.348-0.127,1.336-0.439,2.604-0.439c6.242,0,10.692,8.156,12.835,13.163l2.851,7.582     l-41.659,15.661c0,0,0,0-0.002,0c-0.001,0-0.002,0.002-0.004,0.002l-186.992,70.294l-1.194-19.269     c-0.031-0.507,0.033-0.304-0.027-0.566C140.558,106.712,141.646,100.376,154.858,95.852z M166.018,490.664     c-67.013,0.001-121.532-54.517-121.532-121.53c0-30.645,7.784-52.236,21.214-69.569     c36.787,23.596,118.228,81.925,125.909,186.751C182.193,489.113,173.575,490.664,166.018,490.664z M212.374,478.744     c-10.619-108.188-91.772-168.92-131.787-194.965c15.666-13.966,35.591-25.618,58.088-38.768l4.263-2.493     c3.473-2.033,5.506-5.849,5.258-9.866l-5.104-82.342l182.758-68.703l22.871,64.518c1.551,4.375,5.664,7.107,10.054,7.107     c1.183,0,2.386-0.198,3.565-0.617c5.552-1.968,8.459-8.066,6.49-13.619l-23.005-64.898l32.05-12.049l59.694,158.795     c-31.885,15.395-52.644,47.864-52.644,83.894c0,18.705,5.639,36.866,16.025,52.21     C345.725,398.539,269.486,454.57,212.374,478.744z M461.392,312.057c-0.171,0.104-0.338,0.214-0.503,0.33     c-10.93,7.588-25.748,18.748-42.893,31.698c-7.619-11.635-11.737-25.293-11.737-39.344c0-27.122,15.262-51.616,38.861-63.807     l20.184,53.692c0.187,0.495,0.409,0.975,0.666,1.437c0.014,0.025,1.397,2.812,1.541,6.094     C467.63,304.943,467.046,308.588,461.392,312.057z"/>
		</g>
	</g>
</g>
<g>
</g>
<g>
</g>
<g>
</g>
<g>
</g>
<g>
</g>
<g>
</g>
<g>
</g>
<g>
</g>
<g>
</g>
<g>
</g>
<g>
</g>
<g>
</g>
<g>
</g>
<g>
</g>
<g>
</g>
</svg>
