<?xml version="1.0" encoding="iso-8859-1"?>
<!-- Generator: Adobe Illustrator 19.0.0, SVG Export Plug-In . SVG Version: 6.00 Build 0)  -->
<svg xmlns="http://www.w3.org/2000/svg" xmlns:xlink="http://www.w3.org/1999/xlink" version="1.1" id="Layer_1" x="0px" y="0px" viewBox="0 0 512.001 512.001" style="enable-background:new 0 0 512.001 512.001;" xml:space="preserve">
<g>
	<g>
		<g>
			<path d="M507.773,134.614c-2.663-2.015-6.11-2.668-9.33-1.759c-37.692,10.638-67.585,37.789-82.662,72.174     c-19.732-45.241-64.884-76.947-117.312-76.947h-85.277c-52.4,0-97.536,31.677-117.283,76.885     c-15.025-34.386-44.805-61.514-82.354-72.112c-3.217-0.908-6.669-0.256-9.33,1.759C1.564,136.629,0,139.775,0,143.115v28.523     c0,21.813,4.697,47.736,12.565,69.345l6.704,18.4L8.909,286.579C0,309.968,0,335.968,0,368.888c0,3.339,1.564,6.485,4.227,8.501     c1.874,1.418,4.137,2.16,6.434,2.16c0.968,0,1.942-0.132,2.896-0.401c37.549-10.598,67.329-37.726,82.354-72.112     c19.747,45.206,64.882,76.884,117.283,76.884h85.277c52.428,0,97.58-31.705,117.312-76.945     c15.075,34.384,44.97,61.535,82.664,72.173c0.952,0.269,1.926,0.401,2.894,0.401c2.296,0,4.562-0.743,6.434-2.16     c2.663-2.015,4.227-5.161,4.227-8.501V143.115C512,139.775,510.436,136.629,507.773,134.614z M21.321,158.222     c19.613,8.571,35.908,22.838,47.148,40.448c-13.841-6.41-29.972-8.878-45.794-6.932c-0.876-6.977-1.354-13.79-1.354-20.1V158.222     z M21.354,353.765c0.171-24.336,1.208-43.133,7.479-59.596L40.61,263.26c0.911-2.395,0.931-5.038,0.054-7.445l-8.064-22.13     c-2.386-6.549-4.452-13.65-6.149-20.922c15.56-1.665,31.267,2.269,42.723,11.059c7.346,5.637,16.103,15.795,16.103,32.179     C85.277,298.667,59.604,337.032,21.354,353.765z M298.469,362.598h-85.277c-44.033,0-81.914-26.839-98.15-65.016     c3.646,2.149,7.602,4.188,11.866,6.104c0.592,0.266,1.197,0.531,1.805,0.796c1.383,0.601,2.825,0.886,4.244,0.886     c4.116,0,8.037-2.399,9.782-6.415c2.346-5.4-0.129-11.68-5.528-14.026c-0.52-0.225-1.037-0.451-1.555-0.684     c-18.195-8.174-29.058-18.732-29.058-28.241c0-58.779,47.817-106.599,106.595-106.599h85.277     c43.941,0,81.753,26.726,98.047,64.774c-3.517-2.062-7.323-4.018-11.412-5.856c-0.6-0.271-1.206-0.536-1.818-0.802     c-5.397-2.346-11.678,0.13-14.025,5.53c-2.344,5.401,0.131,11.68,5.531,14.025c0.516,0.224,1.027,0.448,1.553,0.685     c17.985,8.081,28.724,18.639,28.724,28.243C405.07,314.779,357.25,362.598,298.469,362.598z M490.679,353.789     c-18.166-7.91-33.506-20.649-44.645-36.381c8.511,2.9,18.025,4.379,28.098,4.379c5.378,0,10.918-0.438,16.547-1.29V353.789z      M490.679,298.88c-19.828,3.653-38.371,0.834-49.693-7.855c-9.686-7.431-14.595-19.215-14.595-35.025     c0-42.651,25.822-81.038,64.289-97.789V298.88z"/>
			<path d="M164.27,293.51c-5.701-1.312-11.412,2.23-12.762,7.94c-1.354,5.73,2.197,11.472,7.927,12.824     c0.188,0.044,0.385,0.087,0.572,0.126c0.712,0.143,1.418,0.212,2.117,0.212c4.97,0,9.419-3.497,10.438-8.558     C173.723,300.3,170.012,294.696,164.27,293.51z"/>
			<path d="M352.467,197.704l-0.225-0.05c-5.749-1.303-11.451,2.298-12.755,8.04c-1.302,5.742,2.298,11.451,8.041,12.753     l0.238,0.053c0.793,0.179,1.582,0.264,2.361,0.264c4.872,0,9.269-3.361,10.387-8.312     C361.813,204.71,358.21,199.003,352.467,197.704z"/>
			<path d="M283.199,198.124c-6.992,0-16.865,1.914-27.367,9.994c-10.5-8.081-20.373-9.994-27.367-9.994     c-14.5,0-28.108,8.347-35.516,21.783c-7.971,14.454-7.379,31.559,1.582,45.752c9.961,15.782,25.856,27.583,55.567,46.543     c1.749,1.116,3.742,1.674,5.734,1.674c1.992,0,3.987-0.558,5.736-1.674c29.712-18.962,45.606-30.763,55.567-46.542     c8.961-14.194,9.553-31.298,1.584-45.752C311.312,206.471,297.704,198.124,283.199,198.124z M299.107,254.28     c-7.227,11.448-19.967,21.195-43.275,36.268c-23.305-15.073-36.046-24.82-43.273-36.268c-4.751-7.526-5.103-16.527-0.941-24.078     c3.659-6.635,10.115-10.756,16.847-10.756c6.448,0,13.225,3.583,19.603,10.361c2.016,2.142,4.824,3.356,7.764,3.356     c2.94,0,5.751-1.214,7.764-3.356c6.377-6.778,13.157-10.361,19.603-10.361c6.735,0,13.192,4.121,16.849,10.755     C304.21,237.751,303.858,246.752,299.107,254.28z"/>
		</g>
	</g>
</g>
<g>
</g>
<g>
</g>
<g>
</g>
<g>
</g>
<g>
</g>
<g>
</g>
<g>
</g>
<g>
</g>
<g>
</g>
<g>
</g>
<g>
</g>
<g>
</g>
<g>
</g>
<g>
</g>
<g>
</g>
</svg>
