<?xml version="1.0" encoding="iso-8859-1"?>
<!-- Generator: Adobe Illustrator 19.0.0, SVG Export Plug-In . SVG Version: 6.00 Build 0)  -->
<svg xmlns="http://www.w3.org/2000/svg" xmlns:xlink="http://www.w3.org/1999/xlink" version="1.1" id="Layer_1" x="0px" y="0px" viewBox="0 0 512 512" style="enable-background:new 0 0 512 512;" xml:space="preserve">
<g>
	<g>
		<g>
			<path d="M144.681,73.393c1.681,0.974,3.519,1.436,5.331,1.436c3.683,0,7.268-1.909,9.244-5.327     c11.753-20.316,29.265-36.171,50.641-45.852c5.367-2.43,7.749-8.751,5.317-14.118c-2.429-5.367-8.75-7.748-14.117-5.317     c-25.457,11.529-46.313,30.41-60.307,54.604C137.839,63.917,139.581,70.443,144.681,73.393z"/>
			<path d="M91.135,203.689c-1.525-5.69-7.371-9.068-13.065-7.542c-20.845,5.588-35.403,24.559-35.403,46.137     c0,8.373,2.212,16.63,6.398,23.881c1.974,3.423,5.561,5.337,9.248,5.337c1.808,0,3.644-0.461,5.323-1.43     c5.102-2.945,6.851-9.469,3.906-14.571c-2.317-4.013-3.542-8.582-3.542-13.216c0-11.94,8.057-22.439,19.59-25.53     C89.282,215.228,92.659,209.379,91.135,203.689z"/>
			<path d="M421.57,151.851c-9.505,0-18.668,1.483-27.28,4.215c-14.32-13.601-30.395-24.977-47.94-33.923     c-1.753-48.332-41.594-87.116-90.346-87.116c-47.926,0-87.242,37.479-90.228,84.665c-18.985,9.035-36.348,20.875-51.761,35.298     c-7.524-2.034-15.424-3.138-23.58-3.138C40.569,151.851,0,192.418,0,242.282c0,35.356,20.408,66.018,50.051,80.878     c9.561,104.574,97.741,185.578,203.532,185.578c52.095,0,101.71-19.603,139.71-55.2c36.14-33.854,58.549-79.092,63.593-128.013     C489.25,311.744,512,279.621,512,242.282C512,192.417,471.433,151.851,421.57,151.851z M344.227,145.234     c10.35,5.905,20.076,12.796,29.103,20.615c-6.143,3.891-11.785,8.499-16.81,13.71c-6.175-5.1-12.713-9.732-19.566-13.861     C340.161,159.271,342.62,152.413,344.227,145.234z M256.002,56.361c38.1,0,69.097,30.997,69.097,69.096     c0,38.099-30.998,69.096-69.097,69.096c-38.099,0-69.097-30.997-69.097-69.096C186.904,87.358,217.901,56.361,256.002,56.361z      M256.002,215.887c27.759,0,52.626-12.583,69.228-32.334c6.457,3.839,12.595,8.189,18.362,13.013     c-7.9,13.424-12.453,29.044-12.453,45.715c0,39.529,25.501,73.19,60.91,85.457c-11.211,67.291-69.248,116.999-138.466,116.999     c-68.566,0-126.396-49.047-138.211-115.549c37.769-10.856,65.493-45.693,65.493-86.906c0.001-17.77-5.173-34.344-14.061-48.338     c5.813-4.578,11.976-8.681,18.43-12.286C201.813,202.494,227.364,215.887,256.002,215.887z M167.264,142.832     c1.412,7.232,3.694,14.154,6.726,20.664c-7.231,4.095-14.13,8.747-20.655,13.907c-5.257-5.099-11.128-9.561-17.492-13.274     C145.573,155.935,156.076,148.817,167.264,142.832z M21.335,242.282c0-38.099,30.998-69.096,69.097-69.096     c38.1,0,69.097,30.997,69.097,69.096s-30.998,69.096-69.097,69.096C52.333,311.378,21.335,280.382,21.335,242.282z      M253.583,487.404c-91.453,0-168.206-67.581-181.138-156.494c5.815,1.179,11.83,1.803,17.986,1.803     c1.302,0,2.596-0.044,3.886-0.098c6.236,35.299,24.087,67.603,50.971,91.853c29.744,26.829,68.204,41.606,108.294,41.606     c40.265,0,78.848-14.887,108.646-41.92c26.791-24.306,44.534-56.595,50.688-91.862c2.85,0.272,5.734,0.424,8.652,0.424     c4.425,0,8.772-0.335,13.028-0.952C421.272,420.135,344.432,487.404,253.583,487.404z M421.569,311.378     c-38.1,0-69.095-30.997-69.095-69.096c0-38.099,30.996-69.096,69.095-69.096c38.099,0,69.095,30.997,69.095,69.096     C490.665,280.382,459.67,311.378,421.569,311.378z"/>
			<path d="M223.884,154.677c1.808,0,3.642-0.461,5.321-1.429c5.102-2.945,6.853-9.468,3.906-14.571     c-2.317-4.015-3.542-8.585-3.542-13.217c0-11.941,8.055-22.44,19.588-25.53c5.692-1.524,9.069-7.373,7.544-13.064     c-1.525-5.69-7.369-9.068-13.065-7.543c-20.843,5.584-35.403,24.557-35.403,46.137c0,8.371,2.212,16.628,6.398,23.881     C216.611,152.763,220.196,154.677,223.884,154.677z"/>
			<path d="M429.793,195.234c-2.713-0.475-5.48-0.716-8.223-0.716c-26.339,0-47.765,21.427-47.765,47.766     c0,8.375,2.212,16.632,6.398,23.882c1.976,3.422,5.561,5.335,9.249,5.335c1.808,0,3.644-0.461,5.323-1.43     c5.102-2.946,6.851-9.47,3.904-14.572c-2.317-4.01-3.539-8.58-3.539-13.214c0-14.575,11.857-26.431,26.43-26.431     c1.515,0,3.044,0.133,4.546,0.396c5.802,1.02,11.33-2.866,12.346-8.668C439.476,201.777,435.596,196.249,429.793,195.234z"/>
			<path d="M462.601,217.833c-3.023-5.056-9.572-6.705-14.63-3.683c-5.056,3.023-6.704,9.573-3.681,14.629l0.157,0.271     c1.973,3.433,5.565,5.355,9.261,5.355c1.802,0,3.627-0.458,5.303-1.42c5.109-2.935,6.871-9.455,3.935-14.564     C462.832,218.226,462.715,218.026,462.601,217.833z"/>
			<path d="M135.22,102.243c1.004,0.295,2.019,0.436,3.015,0.436c4.606,0,8.855-3.006,10.224-7.649l0.061-0.213     c1.74-5.628-1.412-11.602-7.04-13.341c-5.629-1.739-11.603,1.413-13.343,7.041l-0.144,0.485     C126.337,94.652,129.57,100.582,135.22,102.243z"/>
		</g>
	</g>
</g>
<g>
</g>
<g>
</g>
<g>
</g>
<g>
</g>
<g>
</g>
<g>
</g>
<g>
</g>
<g>
</g>
<g>
</g>
<g>
</g>
<g>
</g>
<g>
</g>
<g>
</g>
<g>
</g>
<g>
</g>
</svg>
