<?xml version="1.0" encoding="iso-8859-1"?>
<!-- Generator: Adobe Illustrator 19.0.0, SVG Export Plug-In . SVG Version: 6.00 Build 0)  -->
<svg xmlns="http://www.w3.org/2000/svg" xmlns:xlink="http://www.w3.org/1999/xlink" version="1.1" id="Layer_1" x="0px" y="0px" viewBox="0 0 511.999 511.999" style="enable-background:new 0 0 511.999 511.999;" xml:space="preserve">
<g>
	<g>
		<g>
			<path d="M502.957,83.497L428.5,9.041c-11.638-11.638-29.652-12.078-44.826-1.099l-29.611,21.425     C310.178,10.37,262.106,4.567,214.626,12.597c-50.677,8.57-96.734,32.374-133.194,68.836     c-36.463,36.461-60.267,82.518-68.837,133.195c-8.03,47.48-2.228,95.55,16.772,139.437L7.937,383.678     c-10.973,15.174-10.532,33.188,1.1,44.823l74.46,74.459c6.016,6.015,13.738,9.039,21.889,9.039c7.615,0,15.607-2.639,22.935-7.94     l18.705-13.534c7.374,12.79,21.181,21.424,36.975,21.424c11.817,0,22.525-4.832,30.258-12.621     c13.867,2.374,27.808,3.563,41.749,3.563c13.934,0,27.868-1.188,41.727-3.559c7.732,7.787,18.439,12.617,30.254,12.617     c21.621,0,39.526-16.174,42.279-37.056c22.173-11.579,42.437-26.466,60.297-44.328c36.463-36.461,60.267-82.518,68.836-133.195     c8.03-47.48,2.227-95.55-16.771-139.437l21.424-29.609C515.038,113.152,514.597,95.138,502.957,83.497z M205.33,469.29     c0,4.396-1.34,8.486-3.628,11.884c-0.156,0.199-0.311,0.4-0.454,0.611c-3.879,5.341-10.154,8.833-17.246,8.833h-0.002     c-11.758,0-21.326-9.568-21.326-21.327v-58.059c0.011-0.282,0.011-0.561,0-0.841v-69.078c0-11.758,9.568-21.325,21.328-21.325     c11.76,0,21.328,9.567,21.328,21.325V469.29z M184.001,298.657c-22.056,0-39.999-17.945-39.999-40.002     c0-23.542,19.775-55.083,39.999-55.083c20.224,0,40.001,31.541,40.001,55.083C224.002,280.713,206.058,298.657,184.001,298.657z      M225.427,479.454c0.8-3.259,1.233-6.66,1.233-10.163v-18.347c9.752,1.478,19.539,2.235,29.325,2.235     c9.793,0,19.584-0.758,29.346-2.239v18.35c0,3.504,0.433,6.906,1.233,10.167C266.232,482.238,245.761,482.237,225.427,479.454z      M349.318,410.755c0,0.015,0,0.031,0,0.047v58.49c0,11.759-9.568,21.327-21.328,21.327h-0.002     c-7.091,0-13.369-3.493-17.249-8.835c-0.139-0.207-0.291-0.402-0.445-0.598c-2.293-3.401-3.633-7.493-3.633-11.894v-31.263     c0-0.017,0-0.034,0-0.051v-96.665c0-11.758,9.568-21.325,21.328-21.325c11.76,0,21.328,9.567,21.328,21.325V410.755z      M327.99,298.659c-18.364,0-33.878-12.439-38.556-29.337h77.114C361.87,286.219,346.355,298.659,327.99,298.659z      M486.776,115.819l-25.036,34.6c-2.263,3.127-2.66,7.232-1.038,10.734c39.594,85.482,21.422,187.69-45.22,254.329     c-13.527,13.529-28.558,25.184-44.833,34.801v-33.916c8.802-6.294,17.113-13.323,24.755-20.963     c37.236-37.236,57.742-86.744,57.742-139.404c0-52.659-20.506-102.168-57.742-139.404     c-30.772-30.771-69.83-50.122-112.953-55.961c-43.123-5.84-85.921,2.43-123.767,23.909c-5.124,2.907-6.918,9.417-4.011,14.54     c2.907,5.121,9.415,6.918,14.54,4.011c68.557-38.911,155.368-27.158,211.107,28.584c33.208,33.207,51.495,77.359,51.495,124.321     c0,46.962-18.288,91.113-51.495,124.32c-3.105,3.105-6.335,6.094-9.671,8.963v-47.97c0-11.482-4.569-21.91-11.975-29.586     c18.304-10.624,30.648-30.427,30.648-53.071v-65.749c0-5.89-4.776-10.665-10.665-10.665c-5.89,0-10.665,4.775-10.665,10.665     v55.083h-29.338v-55.083c0-5.89-4.775-10.665-10.665-10.665c-5.889,0-10.665,4.775-10.665,10.665v55.083h-29.332v-55.083     c0-5.89-4.775-10.665-10.665-10.665s-10.665,4.775-10.665,10.665v65.749c0,22.643,12.342,42.445,30.643,53.069     c-7.405,7.676-11.974,18.105-11.974,29.588v88.029c-19.503,3.32-39.17,3.321-58.671,0.003v-88.032     c0-11.482-4.569-21.912-11.975-29.587c18.302-10.625,30.646-30.427,30.646-53.07c0-16.167-6.282-34.684-16.802-49.532     c-12.284-17.334-28.096-26.882-44.529-26.882c-16.431,0-32.243,9.546-44.527,26.88c-10.521,14.849-16.802,33.366-16.802,49.533     c0,22.643,12.342,42.445,30.643,53.069c-7.405,7.676-11.974,18.105-11.974,29.588v47.967c-3.337-2.869-6.565-5.858-9.668-8.96     c-54.794-54.793-67.128-140.565-29.991-208.578c2.822-5.171,0.92-11.65-4.249-14.472c-5.17-2.823-11.65-0.92-14.472,4.249     c-20.571,37.677-28.216,80.049-22.107,122.538c6.11,42.49,25.382,80.992,55.736,111.345c7.633,7.634,15.943,14.662,24.751,20.962     v51.943l-25.524,18.47c-4.908,3.551-12.369,5.97-17.241,1.1l-74.457-74.456c-4.87-4.871-2.452-12.333,1.096-17.24l25.039-34.601     c2.262-3.127,2.66-7.232,1.038-10.734c-39.591-85.483-21.419-187.691,45.225-254.33c66.637-66.641,168.843-84.814,254.33-45.22     c3.501,1.623,7.607,1.227,10.733-1.037l34.599-25.035c4.909-3.553,12.369-5.971,17.24-1.1l74.456,74.456     C492.746,103.452,490.328,110.911,486.776,115.819z"/>
			<path d="M116.573,131.691c-4.614-3.661-11.323-2.888-14.984,1.728l-0.46,0.582c-3.646,4.625-2.851,11.332,1.775,14.978     c1.956,1.541,4.284,2.29,6.594,2.29c3.156,0,6.281-1.394,8.384-4.064l0.418-0.529     C121.962,142.061,121.189,135.353,116.573,131.691z"/>
		</g>
	</g>
</g>
<g>
</g>
<g>
</g>
<g>
</g>
<g>
</g>
<g>
</g>
<g>
</g>
<g>
</g>
<g>
</g>
<g>
</g>
<g>
</g>
<g>
</g>
<g>
</g>
<g>
</g>
<g>
</g>
<g>
</g>
</svg>
